<mxfile host="Electron" agent="Mozilla/5.0 (Windows NT 10.0; Win64; x64) AppleWebKit/537.36 (KHTML, like Gecko) draw.io/24.7.5 Chrome/126.0.6478.183 Electron/31.3.0 Safari/537.36" version="24.7.5">
  <diagram name="Page-1" id="FU6_ZFj3PDVp-BaARSxE">
    <mxGraphModel dx="3984" dy="3084" grid="1" gridSize="10" guides="1" tooltips="1" connect="1" arrows="1" fold="1" page="1" pageScale="1" pageWidth="850" pageHeight="1100" math="0" shadow="0">
      <root>
        <mxCell id="0" />
        <mxCell id="1" parent="0" />
        <mxCell id="6JZ951tkPi9Nr6TmQ6ol-1" value="" style="rounded=0;whiteSpace=wrap;html=1;" parent="1" vertex="1">
          <mxGeometry x="-1410" y="324" width="1140" height="656" as="geometry" />
        </mxCell>
        <mxCell id="6JZ951tkPi9Nr6TmQ6ol-3" value="User" style="swimlane;fontStyle=0;childLayout=stackLayout;horizontal=1;startSize=26;fillColor=none;horizontalStack=0;resizeParent=1;resizeParentMax=0;resizeLast=0;collapsible=1;marginBottom=0;whiteSpace=wrap;html=1;" parent="1" vertex="1">
          <mxGeometry x="-223.67000000000004" y="-1180" width="190" height="182" as="geometry" />
        </mxCell>
        <mxCell id="6JZ951tkPi9Nr6TmQ6ol-4" value="+ id : UUID string" style="text;strokeColor=none;fillColor=none;align=left;verticalAlign=top;spacingLeft=4;spacingRight=4;overflow=hidden;rotatable=0;points=[[0,0.5],[1,0.5]];portConstraint=eastwest;whiteSpace=wrap;html=1;" parent="6JZ951tkPi9Nr6TmQ6ol-3" vertex="1">
          <mxGeometry y="26" width="190" height="26" as="geometry" />
        </mxCell>
        <mxCell id="6JZ951tkPi9Nr6TmQ6ol-5" value="+ username : VARCHAR (255)" style="text;strokeColor=none;fillColor=none;align=left;verticalAlign=top;spacingLeft=4;spacingRight=4;overflow=hidden;rotatable=0;points=[[0,0.5],[1,0.5]];portConstraint=eastwest;whiteSpace=wrap;html=1;" parent="6JZ951tkPi9Nr6TmQ6ol-3" vertex="1">
          <mxGeometry y="52" width="190" height="26" as="geometry" />
        </mxCell>
        <mxCell id="6JZ951tkPi9Nr6TmQ6ol-6" value="+ email : VARCHAR (255)" style="text;strokeColor=none;fillColor=none;align=left;verticalAlign=top;spacingLeft=4;spacingRight=4;overflow=hidden;rotatable=0;points=[[0,0.5],[1,0.5]];portConstraint=eastwest;whiteSpace=wrap;html=1;" parent="6JZ951tkPi9Nr6TmQ6ol-3" vertex="1">
          <mxGeometry y="78" width="190" height="26" as="geometry" />
        </mxCell>
        <mxCell id="6JZ951tkPi9Nr6TmQ6ol-7" value="+ password : PASSWORD&amp;nbsp;&lt;span style=&quot;background-color: initial;&quot;&gt;(SQL)&lt;/span&gt;" style="text;strokeColor=none;fillColor=none;align=left;verticalAlign=top;spacingLeft=4;spacingRight=4;overflow=hidden;rotatable=0;points=[[0,0.5],[1,0.5]];portConstraint=eastwest;whiteSpace=wrap;html=1;" parent="6JZ951tkPi9Nr6TmQ6ol-3" vertex="1">
          <mxGeometry y="104" width="190" height="26" as="geometry" />
        </mxCell>
        <mxCell id="6JZ951tkPi9Nr6TmQ6ol-8" value="+ createdAt : DATETIME" style="text;strokeColor=none;fillColor=none;align=left;verticalAlign=top;spacingLeft=4;spacingRight=4;overflow=hidden;rotatable=0;points=[[0,0.5],[1,0.5]];portConstraint=eastwest;whiteSpace=wrap;html=1;" parent="6JZ951tkPi9Nr6TmQ6ol-3" vertex="1">
          <mxGeometry y="130" width="190" height="26" as="geometry" />
        </mxCell>
        <mxCell id="6JZ951tkPi9Nr6TmQ6ol-9" value="+ updatedAt : DATETIME" style="text;strokeColor=none;fillColor=none;align=left;verticalAlign=top;spacingLeft=4;spacingRight=4;overflow=hidden;rotatable=0;points=[[0,0.5],[1,0.5]];portConstraint=eastwest;whiteSpace=wrap;html=1;" parent="6JZ951tkPi9Nr6TmQ6ol-3" vertex="1">
          <mxGeometry y="156" width="190" height="26" as="geometry" />
        </mxCell>
        <mxCell id="6JZ951tkPi9Nr6TmQ6ol-10" value="User Profile" style="swimlane;fontStyle=0;childLayout=stackLayout;horizontal=1;startSize=26;fillColor=none;horizontalStack=0;resizeParent=1;resizeParentMax=0;resizeLast=0;collapsible=1;marginBottom=0;whiteSpace=wrap;html=1;" parent="1" vertex="1">
          <mxGeometry x="92.21" y="-1034" width="207.79" height="234" as="geometry" />
        </mxCell>
        <mxCell id="6JZ951tkPi9Nr6TmQ6ol-11" value="+ id : UUID string" style="text;strokeColor=none;fillColor=none;align=left;verticalAlign=top;spacingLeft=4;spacingRight=4;overflow=hidden;rotatable=0;points=[[0,0.5],[1,0.5]];portConstraint=eastwest;whiteSpace=wrap;html=1;" parent="6JZ951tkPi9Nr6TmQ6ol-10" vertex="1">
          <mxGeometry y="26" width="207.79" height="26" as="geometry" />
        </mxCell>
        <mxCell id="6JZ951tkPi9Nr6TmQ6ol-12" value="+ user" style="text;strokeColor=none;fillColor=none;align=left;verticalAlign=top;spacingLeft=4;spacingRight=4;overflow=hidden;rotatable=0;points=[[0,0.5],[1,0.5]];portConstraint=eastwest;whiteSpace=wrap;html=1;" parent="6JZ951tkPi9Nr6TmQ6ol-10" vertex="1">
          <mxGeometry y="52" width="207.79" height="26" as="geometry" />
        </mxCell>
        <mxCell id="6JZ951tkPi9Nr6TmQ6ol-17" value="+ numberOfFollowers : INTEGER" style="text;strokeColor=none;fillColor=none;align=left;verticalAlign=top;spacingLeft=4;spacingRight=4;overflow=hidden;rotatable=0;points=[[0,0.5],[1,0.5]];portConstraint=eastwest;whiteSpace=wrap;html=1;" parent="6JZ951tkPi9Nr6TmQ6ol-10" vertex="1">
          <mxGeometry y="78" width="207.79" height="26" as="geometry" />
        </mxCell>
        <mxCell id="6JZ951tkPi9Nr6TmQ6ol-18" value="+ numberOfFollowings : INTEGER" style="text;strokeColor=none;fillColor=none;align=left;verticalAlign=top;spacingLeft=4;spacingRight=4;overflow=hidden;rotatable=0;points=[[0,0.5],[1,0.5]];portConstraint=eastwest;whiteSpace=wrap;html=1;" parent="6JZ951tkPi9Nr6TmQ6ol-10" vertex="1">
          <mxGeometry y="104" width="207.79" height="26" as="geometry" />
        </mxCell>
        <mxCell id="cVVkLgNvFqvZXcf-PF3v-27" value="+ followings" style="text;strokeColor=none;fillColor=none;align=left;verticalAlign=top;spacingLeft=4;spacingRight=4;overflow=hidden;rotatable=0;points=[[0,0.5],[1,0.5]];portConstraint=eastwest;whiteSpace=wrap;html=1;" parent="6JZ951tkPi9Nr6TmQ6ol-10" vertex="1">
          <mxGeometry y="130" width="207.79" height="26" as="geometry" />
        </mxCell>
        <mxCell id="cVVkLgNvFqvZXcf-PF3v-26" value="+ followers" style="text;strokeColor=none;fillColor=none;align=left;verticalAlign=top;spacingLeft=4;spacingRight=4;overflow=hidden;rotatable=0;points=[[0,0.5],[1,0.5]];portConstraint=eastwest;whiteSpace=wrap;html=1;" parent="6JZ951tkPi9Nr6TmQ6ol-10" vertex="1">
          <mxGeometry y="156" width="207.79" height="26" as="geometry" />
        </mxCell>
        <mxCell id="6JZ951tkPi9Nr6TmQ6ol-20" value="+ biography : NVARCHAR (400)" style="text;strokeColor=none;fillColor=none;align=left;verticalAlign=top;spacingLeft=4;spacingRight=4;overflow=hidden;rotatable=0;points=[[0,0.5],[1,0.5]];portConstraint=eastwest;whiteSpace=wrap;html=1;" parent="6JZ951tkPi9Nr6TmQ6ol-10" vertex="1">
          <mxGeometry y="182" width="207.79" height="26" as="geometry" />
        </mxCell>
        <mxCell id="6JZ951tkPi9Nr6TmQ6ol-21" value="+ updatedAt : DATETIME" style="text;strokeColor=none;fillColor=none;align=left;verticalAlign=top;spacingLeft=4;spacingRight=4;overflow=hidden;rotatable=0;points=[[0,0.5],[1,0.5]];portConstraint=eastwest;whiteSpace=wrap;html=1;" parent="6JZ951tkPi9Nr6TmQ6ol-10" vertex="1">
          <mxGeometry y="208" width="207.79" height="26" as="geometry" />
        </mxCell>
        <mxCell id="6JZ951tkPi9Nr6TmQ6ol-22" value="" style="endArrow=classic;startArrow=classic;html=1;rounded=0;exitX=1;exitY=0.5;exitDx=0;exitDy=0;entryX=0;entryY=0.5;entryDx=0;entryDy=0;" parent="1" source="6JZ951tkPi9Nr6TmQ6ol-4" target="6JZ951tkPi9Nr6TmQ6ol-12" edge="1">
          <mxGeometry width="50" height="50" relative="1" as="geometry">
            <mxPoint x="42.210000000000036" y="-1090" as="sourcePoint" />
            <mxPoint x="92.20999999999998" y="-1140" as="targetPoint" />
          </mxGeometry>
        </mxCell>
        <mxCell id="RTL6kd38lY_tx-6XgPDL-137" value="one-to-one" style="edgeLabel;html=1;align=center;verticalAlign=middle;resizable=0;points=[];" parent="6JZ951tkPi9Nr6TmQ6ol-22" vertex="1" connectable="0">
          <mxGeometry x="-0.1814" y="-1" relative="1" as="geometry">
            <mxPoint as="offset" />
          </mxGeometry>
        </mxCell>
        <mxCell id="6JZ951tkPi9Nr6TmQ6ol-23" value="User A&lt;span style=&quot;background-color: initial;&quot;&gt;ddress&lt;/span&gt;" style="swimlane;fontStyle=0;childLayout=stackLayout;horizontal=1;startSize=26;fillColor=none;horizontalStack=0;resizeParent=1;resizeParentMax=0;resizeLast=0;collapsible=1;marginBottom=0;whiteSpace=wrap;html=1;" parent="1" vertex="1">
          <mxGeometry x="92.21" y="-1380" width="207.79" height="208" as="geometry" />
        </mxCell>
        <mxCell id="6JZ951tkPi9Nr6TmQ6ol-24" value="+ id : UUID string" style="text;strokeColor=none;fillColor=none;align=left;verticalAlign=top;spacingLeft=4;spacingRight=4;overflow=hidden;rotatable=0;points=[[0,0.5],[1,0.5]];portConstraint=eastwest;whiteSpace=wrap;html=1;" parent="6JZ951tkPi9Nr6TmQ6ol-23" vertex="1">
          <mxGeometry y="26" width="207.79" height="26" as="geometry" />
        </mxCell>
        <mxCell id="6JZ951tkPi9Nr6TmQ6ol-25" value="+ user" style="text;strokeColor=none;fillColor=none;align=left;verticalAlign=top;spacingLeft=4;spacingRight=4;overflow=hidden;rotatable=0;points=[[0,0.5],[1,0.5]];portConstraint=eastwest;whiteSpace=wrap;html=1;" parent="6JZ951tkPi9Nr6TmQ6ol-23" vertex="1">
          <mxGeometry y="52" width="207.79" height="26" as="geometry" />
        </mxCell>
        <mxCell id="6JZ951tkPi9Nr6TmQ6ol-26" value="+ address : VARCHAR&lt;span style=&quot;background-color: initial;&quot;&gt;&amp;nbsp;(255)&lt;/span&gt;" style="text;strokeColor=none;fillColor=none;align=left;verticalAlign=top;spacingLeft=4;spacingRight=4;overflow=hidden;rotatable=0;points=[[0,0.5],[1,0.5]];portConstraint=eastwest;whiteSpace=wrap;html=1;" parent="6JZ951tkPi9Nr6TmQ6ol-23" vertex="1">
          <mxGeometry y="78" width="207.79" height="26" as="geometry" />
        </mxCell>
        <mxCell id="6JZ951tkPi9Nr6TmQ6ol-27" value="+ country : VARCHAR (255)" style="text;strokeColor=none;fillColor=none;align=left;verticalAlign=top;spacingLeft=4;spacingRight=4;overflow=hidden;rotatable=0;points=[[0,0.5],[1,0.5]];portConstraint=eastwest;whiteSpace=wrap;html=1;" parent="6JZ951tkPi9Nr6TmQ6ol-23" vertex="1">
          <mxGeometry y="104" width="207.79" height="26" as="geometry" />
        </mxCell>
        <mxCell id="6JZ951tkPi9Nr6TmQ6ol-28" value="+ city : VARCHAR (255)" style="text;strokeColor=none;fillColor=none;align=left;verticalAlign=top;spacingLeft=4;spacingRight=4;overflow=hidden;rotatable=0;points=[[0,0.5],[1,0.5]];portConstraint=eastwest;whiteSpace=wrap;html=1;" parent="6JZ951tkPi9Nr6TmQ6ol-23" vertex="1">
          <mxGeometry y="130" width="207.79" height="26" as="geometry" />
        </mxCell>
        <mxCell id="6JZ951tkPi9Nr6TmQ6ol-29" value="+ zipCode : VARCHAR (255)" style="text;strokeColor=none;fillColor=none;align=left;verticalAlign=top;spacingLeft=4;spacingRight=4;overflow=hidden;rotatable=0;points=[[0,0.5],[1,0.5]];portConstraint=eastwest;whiteSpace=wrap;html=1;" parent="6JZ951tkPi9Nr6TmQ6ol-23" vertex="1">
          <mxGeometry y="156" width="207.79" height="26" as="geometry" />
        </mxCell>
        <mxCell id="6JZ951tkPi9Nr6TmQ6ol-30" value="+ state : VARCHAR (255)" style="text;strokeColor=none;fillColor=none;align=left;verticalAlign=top;spacingLeft=4;spacingRight=4;overflow=hidden;rotatable=0;points=[[0,0.5],[1,0.5]];portConstraint=eastwest;whiteSpace=wrap;html=1;" parent="6JZ951tkPi9Nr6TmQ6ol-23" vertex="1">
          <mxGeometry y="182" width="207.79" height="26" as="geometry" />
        </mxCell>
        <mxCell id="6JZ951tkPi9Nr6TmQ6ol-31" value="" style="endArrow=classic;startArrow=classic;html=1;rounded=0;exitX=1;exitY=0.5;exitDx=0;exitDy=0;entryX=0;entryY=0.5;entryDx=0;entryDy=0;" parent="1" source="6JZ951tkPi9Nr6TmQ6ol-4" target="6JZ951tkPi9Nr6TmQ6ol-25" edge="1">
          <mxGeometry width="50" height="50" relative="1" as="geometry">
            <mxPoint x="-77.79000000000005" y="-1363" as="sourcePoint" />
            <mxPoint x="109.20999999999998" y="-1180" as="targetPoint" />
          </mxGeometry>
        </mxCell>
        <mxCell id="RTL6kd38lY_tx-6XgPDL-136" value="one-to-one" style="edgeLabel;html=1;align=center;verticalAlign=middle;resizable=0;points=[];" parent="6JZ951tkPi9Nr6TmQ6ol-31" vertex="1" connectable="0">
          <mxGeometry x="-0.1597" y="1" relative="1" as="geometry">
            <mxPoint as="offset" />
          </mxGeometry>
        </mxCell>
        <mxCell id="6JZ951tkPi9Nr6TmQ6ol-33" value="Auth Controller Routes" style="swimlane;fontStyle=0;childLayout=stackLayout;horizontal=1;startSize=30;horizontalStack=0;resizeParent=1;resizeParentMax=0;resizeLast=0;collapsible=1;marginBottom=0;whiteSpace=wrap;html=1;" parent="1" vertex="1">
          <mxGeometry x="-1380" y="740" width="170" height="120" as="geometry">
            <mxRectangle x="-1135" y="532" width="80" height="30" as="alternateBounds" />
          </mxGeometry>
        </mxCell>
        <mxCell id="6JZ951tkPi9Nr6TmQ6ol-34" value="/api/auth/login(POST)" style="text;strokeColor=none;fillColor=none;align=left;verticalAlign=middle;spacingLeft=4;spacingRight=4;overflow=hidden;points=[[0,0.5],[1,0.5]];portConstraint=eastwest;rotatable=0;whiteSpace=wrap;html=1;" parent="6JZ951tkPi9Nr6TmQ6ol-33" vertex="1">
          <mxGeometry y="30" width="170" height="30" as="geometry" />
        </mxCell>
        <mxCell id="6JZ951tkPi9Nr6TmQ6ol-35" value="/api/auth/register(POST)" style="text;strokeColor=none;fillColor=none;align=left;verticalAlign=middle;spacingLeft=4;spacingRight=4;overflow=hidden;points=[[0,0.5],[1,0.5]];portConstraint=eastwest;rotatable=0;whiteSpace=wrap;html=1;" parent="6JZ951tkPi9Nr6TmQ6ol-33" vertex="1">
          <mxGeometry y="60" width="170" height="30" as="geometry" />
        </mxCell>
        <mxCell id="6JZ951tkPi9Nr6TmQ6ol-36" value="/api/auth/me(GET)" style="text;strokeColor=none;fillColor=none;align=left;verticalAlign=middle;spacingLeft=4;spacingRight=4;overflow=hidden;points=[[0,0.5],[1,0.5]];portConstraint=eastwest;rotatable=0;whiteSpace=wrap;html=1;" parent="6JZ951tkPi9Nr6TmQ6ol-33" vertex="1">
          <mxGeometry y="90" width="170" height="30" as="geometry" />
        </mxCell>
        <mxCell id="6JZ951tkPi9Nr6TmQ6ol-37" value="&lt;font style=&quot;font-size: 20px;&quot;&gt;Auth Service&lt;/font&gt;" style="text;html=1;align=center;verticalAlign=middle;resizable=0;points=[];autosize=1;strokeColor=none;fillColor=none;" parent="1" vertex="1">
          <mxGeometry x="-920" y="324" width="140" height="40" as="geometry" />
        </mxCell>
        <mxCell id="QxZh3QZaXFdnJh5QPRap-1" style="edgeStyle=orthogonalEdgeStyle;rounded=0;orthogonalLoop=1;jettySize=auto;html=1;exitX=0.5;exitY=1;exitDx=0;exitDy=0;" parent="1" source="6JZ951tkPi9Nr6TmQ6ol-2" target="6JZ951tkPi9Nr6TmQ6ol-33" edge="1">
          <mxGeometry relative="1" as="geometry" />
        </mxCell>
        <mxCell id="QxZh3QZaXFdnJh5QPRap-29" style="edgeStyle=orthogonalEdgeStyle;rounded=0;orthogonalLoop=1;jettySize=auto;html=1;exitX=1;exitY=0.5;exitDx=0;exitDy=0;entryX=0;entryY=0.25;entryDx=0;entryDy=0;" parent="1" source="6JZ951tkPi9Nr6TmQ6ol-2" target="QxZh3QZaXFdnJh5QPRap-12" edge="1">
          <mxGeometry relative="1" as="geometry" />
        </mxCell>
        <mxCell id="6JZ951tkPi9Nr6TmQ6ol-2" value="NestJs" style="rhombus;whiteSpace=wrap;html=1;" parent="1" vertex="1">
          <mxGeometry x="-1365" y="350" width="140" height="120" as="geometry" />
        </mxCell>
        <mxCell id="QxZh3QZaXFdnJh5QPRap-5" style="edgeStyle=orthogonalEdgeStyle;rounded=0;orthogonalLoop=1;jettySize=auto;html=1;exitX=0.5;exitY=1;exitDx=0;exitDy=0;" parent="1" source="QxZh3QZaXFdnJh5QPRap-4" target="6JZ951tkPi9Nr6TmQ6ol-1" edge="1">
          <mxGeometry relative="1" as="geometry">
            <Array as="points">
              <mxPoint x="-850" y="290" />
              <mxPoint x="-850" y="290" />
            </Array>
          </mxGeometry>
        </mxCell>
        <mxCell id="QxZh3QZaXFdnJh5QPRap-67" style="edgeStyle=orthogonalEdgeStyle;rounded=0;orthogonalLoop=1;jettySize=auto;html=1;exitX=0.5;exitY=1;exitDx=0;exitDy=0;" parent="1" source="QxZh3QZaXFdnJh5QPRap-4" target="QxZh3QZaXFdnJh5QPRap-33" edge="1">
          <mxGeometry relative="1" as="geometry" />
        </mxCell>
        <mxCell id="RTL6kd38lY_tx-6XgPDL-107" style="edgeStyle=orthogonalEdgeStyle;rounded=0;orthogonalLoop=1;jettySize=auto;html=1;exitX=0.5;exitY=1;exitDx=0;exitDy=0;entryX=0.5;entryY=0;entryDx=0;entryDy=0;" parent="1" source="QxZh3QZaXFdnJh5QPRap-4" target="RTL6kd38lY_tx-6XgPDL-105" edge="1">
          <mxGeometry relative="1" as="geometry" />
        </mxCell>
        <mxCell id="QxZh3QZaXFdnJh5QPRap-4" value="" style="rhombus;whiteSpace=wrap;html=1;" parent="1" vertex="1">
          <mxGeometry x="-950" y="44" width="200" height="180" as="geometry" />
        </mxCell>
        <mxCell id="QxZh3QZaXFdnJh5QPRap-6" value="API Gateway Nginx" style="text;html=1;align=center;verticalAlign=middle;whiteSpace=wrap;rounded=0;" parent="1" vertex="1">
          <mxGeometry x="-900" y="119" width="100" height="30" as="geometry" />
        </mxCell>
        <mxCell id="QxZh3QZaXFdnJh5QPRap-7" value="&lt;span style=&quot;color: rgb(240, 240, 240); font-family: Helvetica; font-size: 12px; font-style: normal; font-variant-ligatures: normal; font-variant-caps: normal; font-weight: 400; letter-spacing: normal; orphans: 2; text-align: center; text-indent: 0px; text-transform: none; widows: 2; word-spacing: 0px; -webkit-text-stroke-width: 0px; white-space: nowrap; background-color: rgb(27, 29, 30); text-decoration-thickness: initial; text-decoration-style: initial; text-decoration-color: initial; display: inline !important; float: none;&quot;&gt;/api/auth/&lt;/span&gt;" style="text;html=1;align=center;verticalAlign=middle;whiteSpace=wrap;rounded=0;" parent="1" vertex="1">
          <mxGeometry x="-940" y="290" width="90" height="34" as="geometry" />
        </mxCell>
        <mxCell id="QxZh3QZaXFdnJh5QPRap-12" value="&lt;span style=&quot;font-weight: 700;&quot;&gt;GRPC Controller&lt;/span&gt;" style="swimlane;fontStyle=0;childLayout=stackLayout;horizontal=1;startSize=30;horizontalStack=0;resizeParent=1;resizeParentMax=0;resizeLast=0;collapsible=1;marginBottom=0;whiteSpace=wrap;html=1;" parent="1" vertex="1">
          <mxGeometry x="-1170" y="380" width="140" height="60" as="geometry" />
        </mxCell>
        <mxCell id="QxZh3QZaXFdnJh5QPRap-13" value="ValidateToken" style="text;strokeColor=none;fillColor=none;align=left;verticalAlign=middle;spacingLeft=4;spacingRight=4;overflow=hidden;points=[[0,0.5],[1,0.5]];portConstraint=eastwest;rotatable=0;whiteSpace=wrap;html=1;" parent="QxZh3QZaXFdnJh5QPRap-12" vertex="1">
          <mxGeometry y="30" width="140" height="30" as="geometry" />
        </mxCell>
        <mxCell id="QxZh3QZaXFdnJh5QPRap-18" value="&lt;p style=&quot;line-height: 120%; font-size: 10px;&quot;&gt;Other api endpoints in system will make middleware that is going to call this procedure to validate token and return associated user to them every authorized request.&lt;/p&gt;" style="text;html=1;align=left;verticalAlign=middle;whiteSpace=wrap;rounded=0;" parent="1" vertex="1">
          <mxGeometry x="-980" y="370" width="190" height="70" as="geometry" />
        </mxCell>
        <mxCell id="QxZh3QZaXFdnJh5QPRap-20" style="edgeStyle=orthogonalEdgeStyle;rounded=0;orthogonalLoop=1;jettySize=auto;html=1;exitX=1;exitY=0.5;exitDx=0;exitDy=0;" parent="1" source="QxZh3QZaXFdnJh5QPRap-13" target="QxZh3QZaXFdnJh5QPRap-18" edge="1">
          <mxGeometry relative="1" as="geometry" />
        </mxCell>
        <mxCell id="QxZh3QZaXFdnJh5QPRap-21" value="GRPC Client" style="swimlane;fontStyle=0;childLayout=stackLayout;horizontal=1;startSize=30;horizontalStack=0;resizeParent=1;resizeParentMax=0;resizeLast=0;collapsible=1;marginBottom=0;whiteSpace=wrap;html=1;" parent="1" vertex="1">
          <mxGeometry x="-1170" y="470" width="140" height="60" as="geometry" />
        </mxCell>
        <mxCell id="QxZh3QZaXFdnJh5QPRap-22" value="GetAvatars" style="text;strokeColor=none;fillColor=none;align=left;verticalAlign=middle;spacingLeft=4;spacingRight=4;overflow=hidden;points=[[0,0.5],[1,0.5]];portConstraint=eastwest;rotatable=0;whiteSpace=wrap;html=1;" parent="QxZh3QZaXFdnJh5QPRap-21" vertex="1">
          <mxGeometry y="30" width="140" height="30" as="geometry" />
        </mxCell>
        <mxCell id="QxZh3QZaXFdnJh5QPRap-28" style="edgeStyle=orthogonalEdgeStyle;rounded=0;orthogonalLoop=1;jettySize=auto;html=1;exitX=1;exitY=0.5;exitDx=0;exitDy=0;" parent="1" source="6JZ951tkPi9Nr6TmQ6ol-34" target="QxZh3QZaXFdnJh5QPRap-22" edge="1">
          <mxGeometry relative="1" as="geometry" />
        </mxCell>
        <mxCell id="QxZh3QZaXFdnJh5QPRap-31" value="&lt;p style=&quot;line-height: 120%;&quot;&gt;&lt;span style=&quot;font-size: 10px;&quot;&gt;Login and Register actions needs to call this procedure from microservice that is responsible for handling avatars to get set of avatars in different sizes for certain user.&lt;/span&gt;&lt;/p&gt;" style="text;html=1;align=left;verticalAlign=middle;whiteSpace=wrap;rounded=0;" parent="1" vertex="1">
          <mxGeometry x="-980" y="454" width="190" height="70" as="geometry" />
        </mxCell>
        <mxCell id="QxZh3QZaXFdnJh5QPRap-32" style="edgeStyle=orthogonalEdgeStyle;rounded=0;orthogonalLoop=1;jettySize=auto;html=1;exitX=1;exitY=0.5;exitDx=0;exitDy=0;entryX=0;entryY=0.5;entryDx=0;entryDy=0;" parent="1" source="QxZh3QZaXFdnJh5QPRap-22" target="QxZh3QZaXFdnJh5QPRap-31" edge="1">
          <mxGeometry relative="1" as="geometry" />
        </mxCell>
        <mxCell id="QxZh3QZaXFdnJh5QPRap-33" value="" style="rounded=0;whiteSpace=wrap;html=1;" parent="1" vertex="1">
          <mxGeometry x="-2220" y="324" width="720" height="1046" as="geometry" />
        </mxCell>
        <mxCell id="QxZh3QZaXFdnJh5QPRap-36" value="&lt;font style=&quot;font-size: 20px;&quot;&gt;Media Service&lt;/font&gt;" style="text;html=1;align=center;verticalAlign=middle;resizable=0;points=[];autosize=1;strokeColor=none;fillColor=none;" parent="1" vertex="1">
          <mxGeometry x="-1930" y="324" width="150" height="40" as="geometry" />
        </mxCell>
        <mxCell id="QxZh3QZaXFdnJh5QPRap-55" style="edgeStyle=orthogonalEdgeStyle;rounded=0;orthogonalLoop=1;jettySize=auto;html=1;exitX=0.5;exitY=1;exitDx=0;exitDy=0;" parent="1" source="QxZh3QZaXFdnJh5QPRap-37" target="QxZh3QZaXFdnJh5QPRap-52" edge="1">
          <mxGeometry relative="1" as="geometry">
            <Array as="points">
              <mxPoint x="-2130" y="501" />
              <mxPoint x="-1925" y="501" />
            </Array>
          </mxGeometry>
        </mxCell>
        <mxCell id="QxZh3QZaXFdnJh5QPRap-97" style="edgeStyle=orthogonalEdgeStyle;rounded=0;orthogonalLoop=1;jettySize=auto;html=1;exitX=1;exitY=0.5;exitDx=0;exitDy=0;entryX=0.5;entryY=0;entryDx=0;entryDy=0;" parent="1" source="QxZh3QZaXFdnJh5QPRap-37" target="QxZh3QZaXFdnJh5QPRap-47" edge="1">
          <mxGeometry relative="1" as="geometry" />
        </mxCell>
        <mxCell id="QxZh3QZaXFdnJh5QPRap-37" value="Java Spring" style="rhombus;whiteSpace=wrap;html=1;" parent="1" vertex="1">
          <mxGeometry x="-2200" y="361" width="140" height="120" as="geometry" />
        </mxCell>
        <mxCell id="QxZh3QZaXFdnJh5QPRap-39" value="Profile Controller Routes" style="swimlane;fontStyle=0;childLayout=stackLayout;horizontal=1;startSize=30;horizontalStack=0;resizeParent=1;resizeParentMax=0;resizeLast=0;collapsible=1;marginBottom=0;whiteSpace=wrap;html=1;" parent="1" vertex="1">
          <mxGeometry x="-2160" y="700" width="260" height="90" as="geometry">
            <mxRectangle x="-1135" y="532" width="80" height="30" as="alternateBounds" />
          </mxGeometry>
        </mxCell>
        <mxCell id="QxZh3QZaXFdnJh5QPRap-40" value="/api/java/protected/profile/avatar(POST)" style="text;strokeColor=none;fillColor=none;align=left;verticalAlign=middle;spacingLeft=4;spacingRight=4;overflow=hidden;points=[[0,0.5],[1,0.5]];portConstraint=eastwest;rotatable=0;whiteSpace=wrap;html=1;" parent="QxZh3QZaXFdnJh5QPRap-39" vertex="1">
          <mxGeometry y="30" width="260" height="30" as="geometry" />
        </mxCell>
        <mxCell id="RTL6kd38lY_tx-6XgPDL-11" value="/api/java/protected/profile/gravatar(POST)" style="text;strokeColor=none;fillColor=none;align=left;verticalAlign=middle;spacingLeft=4;spacingRight=4;overflow=hidden;points=[[0,0.5],[1,0.5]];portConstraint=eastwest;rotatable=0;whiteSpace=wrap;html=1;" parent="QxZh3QZaXFdnJh5QPRap-39" vertex="1">
          <mxGeometry y="60" width="260" height="30" as="geometry" />
        </mxCell>
        <mxCell id="QxZh3QZaXFdnJh5QPRap-47" value="&lt;span style=&quot;font-weight: 700;&quot;&gt;GRPC Controller&lt;/span&gt;" style="swimlane;fontStyle=0;childLayout=stackLayout;horizontal=1;startSize=30;horizontalStack=0;resizeParent=1;resizeParentMax=0;resizeLast=0;collapsible=1;marginBottom=0;whiteSpace=wrap;html=1;" parent="1" vertex="1">
          <mxGeometry x="-2000" y="397" width="140" height="60" as="geometry" />
        </mxCell>
        <mxCell id="QxZh3QZaXFdnJh5QPRap-48" value="GetAvatars" style="text;strokeColor=none;fillColor=none;align=left;verticalAlign=middle;spacingLeft=4;spacingRight=4;overflow=hidden;points=[[0,0.5],[1,0.5]];portConstraint=eastwest;rotatable=0;whiteSpace=wrap;html=1;" parent="QxZh3QZaXFdnJh5QPRap-47" vertex="1">
          <mxGeometry y="30" width="140" height="30" as="geometry" />
        </mxCell>
        <mxCell id="QxZh3QZaXFdnJh5QPRap-49" value="&lt;p style=&quot;line-height: 120%; font-size: 10px;&quot;&gt;Auth Service will call this procedure to&amp;nbsp;&lt;span style=&quot;background-color: initial;&quot;&gt;get set of avatars in different sizes for certain user&lt;/span&gt;&lt;/p&gt;" style="text;html=1;align=left;verticalAlign=middle;whiteSpace=wrap;rounded=0;" parent="1" vertex="1">
          <mxGeometry x="-1820" y="407" width="190" height="50" as="geometry" />
        </mxCell>
        <mxCell id="QxZh3QZaXFdnJh5QPRap-50" style="edgeStyle=orthogonalEdgeStyle;rounded=0;orthogonalLoop=1;jettySize=auto;html=1;exitX=1;exitY=0.5;exitDx=0;exitDy=0;entryX=0;entryY=0.5;entryDx=0;entryDy=0;" parent="1" source="QxZh3QZaXFdnJh5QPRap-48" target="QxZh3QZaXFdnJh5QPRap-49" edge="1">
          <mxGeometry relative="1" as="geometry" />
        </mxCell>
        <mxCell id="QxZh3QZaXFdnJh5QPRap-90" style="edgeStyle=orthogonalEdgeStyle;rounded=0;orthogonalLoop=1;jettySize=auto;html=1;exitX=0;exitY=0.5;exitDx=0;exitDy=0;" parent="1" source="QxZh3QZaXFdnJh5QPRap-52" target="QxZh3QZaXFdnJh5QPRap-39" edge="1">
          <mxGeometry relative="1" as="geometry">
            <Array as="points">
              <mxPoint x="-2190" y="564" />
              <mxPoint x="-2190" y="670" />
              <mxPoint x="-2045" y="670" />
            </Array>
          </mxGeometry>
        </mxCell>
        <mxCell id="QxZh3QZaXFdnJh5QPRap-91" style="edgeStyle=orthogonalEdgeStyle;rounded=0;orthogonalLoop=1;jettySize=auto;html=1;exitX=0;exitY=0.5;exitDx=0;exitDy=0;" parent="1" source="QxZh3QZaXFdnJh5QPRap-52" target="QxZh3QZaXFdnJh5QPRap-61" edge="1">
          <mxGeometry relative="1" as="geometry">
            <Array as="points">
              <mxPoint x="-2190" y="564" />
              <mxPoint x="-2190" y="850" />
              <mxPoint x="-2045" y="850" />
            </Array>
          </mxGeometry>
        </mxCell>
        <mxCell id="RTL6kd38lY_tx-6XgPDL-59" style="edgeStyle=orthogonalEdgeStyle;rounded=0;orthogonalLoop=1;jettySize=auto;html=1;exitX=0;exitY=0.5;exitDx=0;exitDy=0;entryX=0.5;entryY=0;entryDx=0;entryDy=0;" parent="1" source="QxZh3QZaXFdnJh5QPRap-52" target="RTL6kd38lY_tx-6XgPDL-55" edge="1">
          <mxGeometry relative="1" as="geometry">
            <Array as="points">
              <mxPoint x="-2190" y="564" />
              <mxPoint x="-2190" y="1040" />
              <mxPoint x="-2030" y="1040" />
            </Array>
          </mxGeometry>
        </mxCell>
        <mxCell id="QxZh3QZaXFdnJh5QPRap-52" value="" style="shape=parallelogram;perimeter=parallelogramPerimeter;whiteSpace=wrap;html=1;fixedSize=1;" parent="1" vertex="1">
          <mxGeometry x="-2060" y="517" width="270" height="93" as="geometry" />
        </mxCell>
        <mxCell id="QxZh3QZaXFdnJh5QPRap-53" value="Middleware" style="text;html=1;align=center;verticalAlign=middle;whiteSpace=wrap;rounded=0;" parent="1" vertex="1">
          <mxGeometry x="-1962.5" y="517" width="75" height="20" as="geometry" />
        </mxCell>
        <mxCell id="QxZh3QZaXFdnJh5QPRap-57" value="&lt;p style=&quot;line-height: 120%; font-size: 10px;&quot;&gt;Will call&amp;nbsp;&lt;span style=&quot;background-color: initial;&quot;&gt;this procedure to validate token and return associated user every authorized request.&lt;br&gt;&lt;br&gt;Otherwise if it&#39;s request to any available public route, procedure won&#39;t be called.&lt;/span&gt;&lt;/p&gt;" style="text;html=1;align=left;verticalAlign=middle;whiteSpace=wrap;rounded=0;" parent="1" vertex="1">
          <mxGeometry x="-2035" y="537" width="220" height="68.5" as="geometry" />
        </mxCell>
        <mxCell id="RTL6kd38lY_tx-6XgPDL-29" style="edgeStyle=orthogonalEdgeStyle;rounded=0;orthogonalLoop=1;jettySize=auto;html=1;exitX=0;exitY=0.75;exitDx=0;exitDy=0;entryX=1;entryY=0.5;entryDx=0;entryDy=0;" parent="1" source="QxZh3QZaXFdnJh5QPRap-58" target="QxZh3QZaXFdnJh5QPRap-57" edge="1">
          <mxGeometry relative="1" as="geometry">
            <Array as="points">
              <mxPoint x="-1740" y="571" />
            </Array>
          </mxGeometry>
        </mxCell>
        <mxCell id="QxZh3QZaXFdnJh5QPRap-58" value="GRPC Client" style="swimlane;fontStyle=0;childLayout=stackLayout;horizontal=1;startSize=30;horizontalStack=0;resizeParent=1;resizeParentMax=0;resizeLast=0;collapsible=1;marginBottom=0;whiteSpace=wrap;html=1;" parent="1" vertex="1">
          <mxGeometry x="-1740" y="524" width="140" height="60" as="geometry" />
        </mxCell>
        <mxCell id="QxZh3QZaXFdnJh5QPRap-59" value="ValidateToken" style="text;strokeColor=none;fillColor=none;align=left;verticalAlign=middle;spacingLeft=4;spacingRight=4;overflow=hidden;points=[[0,0.5],[1,0.5]];portConstraint=eastwest;rotatable=0;whiteSpace=wrap;html=1;" parent="QxZh3QZaXFdnJh5QPRap-58" vertex="1">
          <mxGeometry y="30" width="140" height="30" as="geometry" />
        </mxCell>
        <mxCell id="QxZh3QZaXFdnJh5QPRap-61" value="Collection Controller Routes" style="swimlane;fontStyle=0;childLayout=stackLayout;horizontal=1;startSize=30;horizontalStack=0;resizeParent=1;resizeParentMax=0;resizeLast=0;collapsible=1;marginBottom=0;whiteSpace=wrap;html=1;" parent="1" vertex="1">
          <mxGeometry x="-2160" y="920" width="260" height="60" as="geometry">
            <mxRectangle x="-1135" y="532" width="80" height="30" as="alternateBounds" />
          </mxGeometry>
        </mxCell>
        <mxCell id="QxZh3QZaXFdnJh5QPRap-62" value="/api/java/protected/collection/{id}/cover(POST)" style="text;strokeColor=none;fillColor=none;align=left;verticalAlign=middle;spacingLeft=4;spacingRight=4;overflow=hidden;points=[[0,0.5],[1,0.5]];portConstraint=eastwest;rotatable=0;whiteSpace=wrap;html=1;" parent="QxZh3QZaXFdnJh5QPRap-61" vertex="1">
          <mxGeometry y="30" width="260" height="30" as="geometry" />
        </mxCell>
        <mxCell id="QxZh3QZaXFdnJh5QPRap-68" value="&lt;span style=&quot;color: rgb(240, 240, 240); font-family: Helvetica; font-size: 12px; font-style: normal; font-variant-ligatures: normal; font-variant-caps: normal; font-weight: 400; letter-spacing: normal; orphans: 2; text-align: center; text-indent: 0px; text-transform: none; widows: 2; word-spacing: 0px; -webkit-text-stroke-width: 0px; white-space: nowrap; background-color: rgb(27, 29, 30); text-decoration-thickness: initial; text-decoration-style: initial; text-decoration-color: initial; display: inline !important; float: none;&quot;&gt;/api/java/&lt;/span&gt;" style="text;html=1;align=center;verticalAlign=middle;whiteSpace=wrap;rounded=0;" parent="1" vertex="1">
          <mxGeometry x="-1975" y="290" width="90" height="34" as="geometry" />
        </mxCell>
        <mxCell id="QxZh3QZaXFdnJh5QPRap-69" value="&lt;span style=&quot;font-weight: 700;&quot;&gt;GRPC Procedures&lt;/span&gt;" style="swimlane;fontStyle=0;childLayout=stackLayout;horizontal=1;startSize=30;horizontalStack=0;resizeParent=1;resizeParentMax=0;resizeLast=0;collapsible=1;marginBottom=0;whiteSpace=wrap;html=1;" parent="1" vertex="1">
          <mxGeometry x="-620" y="-217.00000000000003" width="140" height="90" as="geometry" />
        </mxCell>
        <mxCell id="QxZh3QZaXFdnJh5QPRap-70" value="ValidateToken" style="text;strokeColor=none;fillColor=none;align=left;verticalAlign=middle;spacingLeft=4;spacingRight=4;overflow=hidden;points=[[0,0.5],[1,0.5]];portConstraint=eastwest;rotatable=0;whiteSpace=wrap;html=1;" parent="QxZh3QZaXFdnJh5QPRap-69" vertex="1">
          <mxGeometry y="30" width="140" height="30" as="geometry" />
        </mxCell>
        <mxCell id="QxZh3QZaXFdnJh5QPRap-71" value="GetAvatars" style="text;strokeColor=none;fillColor=none;align=left;verticalAlign=middle;spacingLeft=4;spacingRight=4;overflow=hidden;points=[[0,0.5],[1,0.5]];portConstraint=eastwest;rotatable=0;whiteSpace=wrap;html=1;" parent="QxZh3QZaXFdnJh5QPRap-69" vertex="1">
          <mxGeometry y="60" width="140" height="30" as="geometry" />
        </mxCell>
        <mxCell id="QxZh3QZaXFdnJh5QPRap-73" value="Request" style="swimlane;fontStyle=0;childLayout=stackLayout;horizontal=1;startSize=30;horizontalStack=0;resizeParent=1;resizeParentMax=0;resizeLast=0;collapsible=1;marginBottom=0;whiteSpace=wrap;html=1;" parent="1" vertex="1">
          <mxGeometry x="-840" y="-290" width="140" height="60" as="geometry" />
        </mxCell>
        <mxCell id="QxZh3QZaXFdnJh5QPRap-74" value="token(string)" style="text;strokeColor=none;fillColor=none;align=left;verticalAlign=middle;spacingLeft=4;spacingRight=4;overflow=hidden;points=[[0,0.5],[1,0.5]];portConstraint=eastwest;rotatable=0;whiteSpace=wrap;html=1;" parent="QxZh3QZaXFdnJh5QPRap-73" vertex="1">
          <mxGeometry y="30" width="140" height="30" as="geometry" />
        </mxCell>
        <mxCell id="QxZh3QZaXFdnJh5QPRap-77" value="Response" style="swimlane;fontStyle=0;childLayout=stackLayout;horizontal=1;startSize=30;horizontalStack=0;resizeParent=1;resizeParentMax=0;resizeLast=0;collapsible=1;marginBottom=0;whiteSpace=wrap;html=1;" parent="1" vertex="1">
          <mxGeometry x="-990" y="-290" width="140" height="90" as="geometry" />
        </mxCell>
        <mxCell id="QxZh3QZaXFdnJh5QPRap-78" value="valid(bool)" style="text;strokeColor=none;fillColor=none;align=left;verticalAlign=middle;spacingLeft=4;spacingRight=4;overflow=hidden;points=[[0,0.5],[1,0.5]];portConstraint=eastwest;rotatable=0;whiteSpace=wrap;html=1;" parent="QxZh3QZaXFdnJh5QPRap-77" vertex="1">
          <mxGeometry y="30" width="140" height="30" as="geometry" />
        </mxCell>
        <mxCell id="QxZh3QZaXFdnJh5QPRap-79" value="userDTO(object)" style="text;strokeColor=none;fillColor=none;align=left;verticalAlign=middle;spacingLeft=4;spacingRight=4;overflow=hidden;points=[[0,0.5],[1,0.5]];portConstraint=eastwest;rotatable=0;whiteSpace=wrap;html=1;" parent="QxZh3QZaXFdnJh5QPRap-77" vertex="1">
          <mxGeometry y="60" width="140" height="30" as="geometry" />
        </mxCell>
        <mxCell id="QxZh3QZaXFdnJh5QPRap-102" style="edgeStyle=orthogonalEdgeStyle;rounded=0;orthogonalLoop=1;jettySize=auto;html=1;exitX=0;exitY=0.5;exitDx=0;exitDy=0;entryX=0.5;entryY=0;entryDx=0;entryDy=0;" parent="1" source="QxZh3QZaXFdnJh5QPRap-70" target="QxZh3QZaXFdnJh5QPRap-73" edge="1">
          <mxGeometry relative="1" as="geometry" />
        </mxCell>
        <mxCell id="QxZh3QZaXFdnJh5QPRap-103" style="edgeStyle=orthogonalEdgeStyle;rounded=0;orthogonalLoop=1;jettySize=auto;html=1;exitX=0;exitY=0.5;exitDx=0;exitDy=0;entryX=0.5;entryY=0;entryDx=0;entryDy=0;" parent="1" source="QxZh3QZaXFdnJh5QPRap-70" target="QxZh3QZaXFdnJh5QPRap-77" edge="1">
          <mxGeometry relative="1" as="geometry">
            <Array as="points">
              <mxPoint x="-660" y="-172.00000000000003" />
              <mxPoint x="-660" y="-310" />
              <mxPoint x="-920" y="-310" />
            </Array>
          </mxGeometry>
        </mxCell>
        <mxCell id="QxZh3QZaXFdnJh5QPRap-104" value="AvatarSetDTO" style="swimlane;fontStyle=0;childLayout=stackLayout;horizontal=1;startSize=30;horizontalStack=0;resizeParent=1;resizeParentMax=0;resizeLast=0;collapsible=1;marginBottom=0;whiteSpace=wrap;html=1;" parent="1" vertex="1">
          <mxGeometry x="-1200" y="-170.00000000000003" width="140" height="120" as="geometry" />
        </mxCell>
        <mxCell id="QxZh3QZaXFdnJh5QPRap-105" value="small(string)" style="text;strokeColor=none;fillColor=none;align=left;verticalAlign=middle;spacingLeft=4;spacingRight=4;overflow=hidden;points=[[0,0.5],[1,0.5]];portConstraint=eastwest;rotatable=0;whiteSpace=wrap;html=1;" parent="QxZh3QZaXFdnJh5QPRap-104" vertex="1">
          <mxGeometry y="30" width="140" height="30" as="geometry" />
        </mxCell>
        <mxCell id="QxZh3QZaXFdnJh5QPRap-106" value="medium(string)" style="text;strokeColor=none;fillColor=none;align=left;verticalAlign=middle;spacingLeft=4;spacingRight=4;overflow=hidden;points=[[0,0.5],[1,0.5]];portConstraint=eastwest;rotatable=0;whiteSpace=wrap;html=1;" parent="QxZh3QZaXFdnJh5QPRap-104" vertex="1">
          <mxGeometry y="60" width="140" height="30" as="geometry" />
        </mxCell>
        <mxCell id="QxZh3QZaXFdnJh5QPRap-109" value="large(string)" style="text;strokeColor=none;fillColor=none;align=left;verticalAlign=middle;spacingLeft=4;spacingRight=4;overflow=hidden;points=[[0,0.5],[1,0.5]];portConstraint=eastwest;rotatable=0;whiteSpace=wrap;html=1;" parent="QxZh3QZaXFdnJh5QPRap-104" vertex="1">
          <mxGeometry y="90" width="140" height="30" as="geometry" />
        </mxCell>
        <mxCell id="QxZh3QZaXFdnJh5QPRap-107" value="Request" style="swimlane;fontStyle=0;childLayout=stackLayout;horizontal=1;startSize=30;horizontalStack=0;resizeParent=1;resizeParentMax=0;resizeLast=0;collapsible=1;marginBottom=0;whiteSpace=wrap;html=1;" parent="1" vertex="1">
          <mxGeometry x="-840" y="-140" width="140" height="60" as="geometry" />
        </mxCell>
        <mxCell id="QxZh3QZaXFdnJh5QPRap-108" value="userId(string)" style="text;strokeColor=none;fillColor=none;align=left;verticalAlign=middle;spacingLeft=4;spacingRight=4;overflow=hidden;points=[[0,0.5],[1,0.5]];portConstraint=eastwest;rotatable=0;whiteSpace=wrap;html=1;" parent="QxZh3QZaXFdnJh5QPRap-107" vertex="1">
          <mxGeometry y="30" width="140" height="30" as="geometry" />
        </mxCell>
        <mxCell id="QxZh3QZaXFdnJh5QPRap-110" style="edgeStyle=orthogonalEdgeStyle;rounded=0;orthogonalLoop=1;jettySize=auto;html=1;exitX=0;exitY=0.5;exitDx=0;exitDy=0;entryX=0.5;entryY=0;entryDx=0;entryDy=0;" parent="1" source="QxZh3QZaXFdnJh5QPRap-71" target="QxZh3QZaXFdnJh5QPRap-107" edge="1">
          <mxGeometry relative="1" as="geometry">
            <Array as="points">
              <mxPoint x="-680" y="-142" />
              <mxPoint x="-680" y="-170.00000000000003" />
              <mxPoint x="-770" y="-170.00000000000003" />
            </Array>
          </mxGeometry>
        </mxCell>
        <mxCell id="RTL6kd38lY_tx-6XgPDL-1" value="Response" style="swimlane;fontStyle=0;childLayout=stackLayout;horizontal=1;startSize=30;horizontalStack=0;resizeParent=1;resizeParentMax=0;resizeLast=0;collapsible=1;marginBottom=0;whiteSpace=wrap;html=1;" parent="1" vertex="1">
          <mxGeometry x="-990" y="-140" width="140" height="60" as="geometry" />
        </mxCell>
        <mxCell id="RTL6kd38lY_tx-6XgPDL-2" value="avatars(object)" style="text;strokeColor=none;fillColor=none;align=left;verticalAlign=middle;spacingLeft=4;spacingRight=4;overflow=hidden;points=[[0,0.5],[1,0.5]];portConstraint=eastwest;rotatable=0;whiteSpace=wrap;html=1;" parent="RTL6kd38lY_tx-6XgPDL-1" vertex="1">
          <mxGeometry y="30" width="140" height="30" as="geometry" />
        </mxCell>
        <mxCell id="RTL6kd38lY_tx-6XgPDL-5" style="edgeStyle=orthogonalEdgeStyle;rounded=0;orthogonalLoop=1;jettySize=auto;html=1;exitX=0;exitY=0.5;exitDx=0;exitDy=0;entryX=0.5;entryY=0;entryDx=0;entryDy=0;" parent="1" source="QxZh3QZaXFdnJh5QPRap-71" target="RTL6kd38lY_tx-6XgPDL-1" edge="1">
          <mxGeometry relative="1" as="geometry">
            <Array as="points">
              <mxPoint x="-680" y="-142" />
              <mxPoint x="-680" y="-170.00000000000003" />
              <mxPoint x="-920" y="-170.00000000000003" />
            </Array>
          </mxGeometry>
        </mxCell>
        <mxCell id="RTL6kd38lY_tx-6XgPDL-6" style="edgeStyle=orthogonalEdgeStyle;rounded=0;orthogonalLoop=1;jettySize=auto;html=1;exitX=0;exitY=0.5;exitDx=0;exitDy=0;entryX=0.5;entryY=0;entryDx=0;entryDy=0;" parent="1" source="RTL6kd38lY_tx-6XgPDL-2" target="QxZh3QZaXFdnJh5QPRap-104" edge="1">
          <mxGeometry relative="1" as="geometry" />
        </mxCell>
        <mxCell id="RTL6kd38lY_tx-6XgPDL-12" value="Request" style="swimlane;fontStyle=0;childLayout=stackLayout;horizontal=1;startSize=30;horizontalStack=0;resizeParent=1;resizeParentMax=0;resizeLast=0;collapsible=1;marginBottom=0;whiteSpace=wrap;html=1;" parent="1" vertex="1">
          <mxGeometry x="-1665" y="672" width="140" height="60" as="geometry" />
        </mxCell>
        <mxCell id="RTL6kd38lY_tx-6XgPDL-13" value="avatar(file)" style="text;strokeColor=none;fillColor=none;align=left;verticalAlign=middle;spacingLeft=4;spacingRight=4;overflow=hidden;points=[[0,0.5],[1,0.5]];portConstraint=eastwest;rotatable=0;whiteSpace=wrap;html=1;" parent="RTL6kd38lY_tx-6XgPDL-12" vertex="1">
          <mxGeometry y="30" width="140" height="30" as="geometry" />
        </mxCell>
        <mxCell id="RTL6kd38lY_tx-6XgPDL-16" value="Response" style="swimlane;fontStyle=0;childLayout=stackLayout;horizontal=1;startSize=30;horizontalStack=0;resizeParent=1;resizeParentMax=0;resizeLast=0;collapsible=1;marginBottom=0;whiteSpace=wrap;html=1;" parent="1" vertex="1">
          <mxGeometry x="-1815" y="900" width="140" height="60" as="geometry" />
        </mxCell>
        <mxCell id="RTL6kd38lY_tx-6XgPDL-17" value="message(string)" style="text;strokeColor=none;fillColor=none;align=left;verticalAlign=middle;spacingLeft=4;spacingRight=4;overflow=hidden;points=[[0,0.5],[1,0.5]];portConstraint=eastwest;rotatable=0;whiteSpace=wrap;html=1;" parent="RTL6kd38lY_tx-6XgPDL-16" vertex="1">
          <mxGeometry y="30" width="140" height="30" as="geometry" />
        </mxCell>
        <mxCell id="RTL6kd38lY_tx-6XgPDL-20" value="Request" style="swimlane;fontStyle=0;childLayout=stackLayout;horizontal=1;startSize=30;horizontalStack=0;resizeParent=1;resizeParentMax=0;resizeLast=0;collapsible=1;marginBottom=0;whiteSpace=wrap;html=1;" parent="1" vertex="1">
          <mxGeometry x="-1665" y="900" width="140" height="60" as="geometry" />
        </mxCell>
        <mxCell id="RTL6kd38lY_tx-6XgPDL-21" value="cover(file)" style="text;strokeColor=none;fillColor=none;align=left;verticalAlign=middle;spacingLeft=4;spacingRight=4;overflow=hidden;points=[[0,0.5],[1,0.5]];portConstraint=eastwest;rotatable=0;whiteSpace=wrap;html=1;" parent="RTL6kd38lY_tx-6XgPDL-20" vertex="1">
          <mxGeometry y="30" width="140" height="30" as="geometry" />
        </mxCell>
        <mxCell id="RTL6kd38lY_tx-6XgPDL-28" style="edgeStyle=orthogonalEdgeStyle;rounded=0;orthogonalLoop=1;jettySize=auto;html=1;exitX=1;exitY=0.5;exitDx=0;exitDy=0;entryX=0;entryY=0.5;entryDx=0;entryDy=0;" parent="1" source="6JZ951tkPi9Nr6TmQ6ol-35" target="QxZh3QZaXFdnJh5QPRap-22" edge="1">
          <mxGeometry relative="1" as="geometry" />
        </mxCell>
        <mxCell id="RTL6kd38lY_tx-6XgPDL-40" value="Response" style="swimlane;fontStyle=0;childLayout=stackLayout;horizontal=1;startSize=30;horizontalStack=0;resizeParent=1;resizeParentMax=0;resizeLast=0;collapsible=1;marginBottom=0;whiteSpace=wrap;html=1;" parent="1" vertex="1">
          <mxGeometry x="-1815" y="672" width="140" height="60" as="geometry" />
        </mxCell>
        <mxCell id="RTL6kd38lY_tx-6XgPDL-41" value="message(string)" style="text;strokeColor=none;fillColor=none;align=left;verticalAlign=middle;spacingLeft=4;spacingRight=4;overflow=hidden;points=[[0,0.5],[1,0.5]];portConstraint=eastwest;rotatable=0;whiteSpace=wrap;html=1;" parent="RTL6kd38lY_tx-6XgPDL-40" vertex="1">
          <mxGeometry y="30" width="140" height="30" as="geometry" />
        </mxCell>
        <mxCell id="RTL6kd38lY_tx-6XgPDL-45" value="Response" style="swimlane;fontStyle=0;childLayout=stackLayout;horizontal=1;startSize=30;horizontalStack=0;resizeParent=1;resizeParentMax=0;resizeLast=0;collapsible=1;marginBottom=0;whiteSpace=wrap;html=1;" parent="1" vertex="1">
          <mxGeometry x="-1815" y="790" width="140" height="60" as="geometry" />
        </mxCell>
        <mxCell id="RTL6kd38lY_tx-6XgPDL-46" value="message(string)" style="text;strokeColor=none;fillColor=none;align=left;verticalAlign=middle;spacingLeft=4;spacingRight=4;overflow=hidden;points=[[0,0.5],[1,0.5]];portConstraint=eastwest;rotatable=0;whiteSpace=wrap;html=1;" parent="RTL6kd38lY_tx-6XgPDL-45" vertex="1">
          <mxGeometry y="30" width="140" height="30" as="geometry" />
        </mxCell>
        <mxCell id="RTL6kd38lY_tx-6XgPDL-50" style="edgeStyle=orthogonalEdgeStyle;rounded=0;orthogonalLoop=1;jettySize=auto;html=1;exitX=1;exitY=0.5;exitDx=0;exitDy=0;entryX=0.5;entryY=0;entryDx=0;entryDy=0;" parent="1" source="QxZh3QZaXFdnJh5QPRap-40" target="RTL6kd38lY_tx-6XgPDL-40" edge="1">
          <mxGeometry relative="1" as="geometry">
            <Array as="points">
              <mxPoint x="-1850" y="745" />
              <mxPoint x="-1850" y="652" />
              <mxPoint x="-1745" y="652" />
            </Array>
          </mxGeometry>
        </mxCell>
        <mxCell id="RTL6kd38lY_tx-6XgPDL-51" style="edgeStyle=orthogonalEdgeStyle;rounded=0;orthogonalLoop=1;jettySize=auto;html=1;exitX=1;exitY=0.5;exitDx=0;exitDy=0;entryX=0.5;entryY=0;entryDx=0;entryDy=0;" parent="1" source="QxZh3QZaXFdnJh5QPRap-40" target="RTL6kd38lY_tx-6XgPDL-12" edge="1">
          <mxGeometry relative="1" as="geometry">
            <Array as="points">
              <mxPoint x="-1850" y="745" />
              <mxPoint x="-1850" y="652" />
              <mxPoint x="-1595" y="652" />
            </Array>
          </mxGeometry>
        </mxCell>
        <mxCell id="RTL6kd38lY_tx-6XgPDL-52" style="edgeStyle=orthogonalEdgeStyle;rounded=0;orthogonalLoop=1;jettySize=auto;html=1;exitX=1;exitY=0.5;exitDx=0;exitDy=0;entryX=0.5;entryY=0;entryDx=0;entryDy=0;" parent="1" source="RTL6kd38lY_tx-6XgPDL-11" target="RTL6kd38lY_tx-6XgPDL-45" edge="1">
          <mxGeometry relative="1" as="geometry">
            <Array as="points">
              <mxPoint x="-1745" y="775" />
            </Array>
          </mxGeometry>
        </mxCell>
        <mxCell id="RTL6kd38lY_tx-6XgPDL-53" style="edgeStyle=orthogonalEdgeStyle;rounded=0;orthogonalLoop=1;jettySize=auto;html=1;exitX=1;exitY=0.5;exitDx=0;exitDy=0;entryX=0.5;entryY=0;entryDx=0;entryDy=0;" parent="1" source="QxZh3QZaXFdnJh5QPRap-62" target="RTL6kd38lY_tx-6XgPDL-16" edge="1">
          <mxGeometry relative="1" as="geometry">
            <Array as="points">
              <mxPoint x="-1850" y="965" />
              <mxPoint x="-1850" y="880" />
              <mxPoint x="-1745" y="880" />
            </Array>
          </mxGeometry>
        </mxCell>
        <mxCell id="RTL6kd38lY_tx-6XgPDL-54" style="edgeStyle=orthogonalEdgeStyle;rounded=0;orthogonalLoop=1;jettySize=auto;html=1;exitX=1;exitY=0.5;exitDx=0;exitDy=0;entryX=0.5;entryY=0;entryDx=0;entryDy=0;" parent="1" source="QxZh3QZaXFdnJh5QPRap-62" target="RTL6kd38lY_tx-6XgPDL-20" edge="1">
          <mxGeometry relative="1" as="geometry">
            <Array as="points">
              <mxPoint x="-1850" y="965" />
              <mxPoint x="-1850" y="880" />
              <mxPoint x="-1595" y="880" />
            </Array>
          </mxGeometry>
        </mxCell>
        <mxCell id="RTL6kd38lY_tx-6XgPDL-55" value="Upload Controller Routes" style="swimlane;fontStyle=0;childLayout=stackLayout;horizontal=1;startSize=30;horizontalStack=0;resizeParent=1;resizeParentMax=0;resizeLast=0;collapsible=1;marginBottom=0;whiteSpace=wrap;html=1;" parent="1" vertex="1">
          <mxGeometry x="-2160" y="1140" width="260" height="160" as="geometry" />
        </mxCell>
        <mxCell id="RTL6kd38lY_tx-6XgPDL-56" value="/api/java/protected/request-file-id(POST)" style="text;strokeColor=none;fillColor=none;align=left;verticalAlign=middle;spacingLeft=4;spacingRight=4;overflow=hidden;points=[[0,0.5],[1,0.5]];portConstraint=eastwest;rotatable=0;whiteSpace=wrap;html=1;" parent="RTL6kd38lY_tx-6XgPDL-55" vertex="1">
          <mxGeometry y="30" width="260" height="30" as="geometry" />
        </mxCell>
        <mxCell id="RTL6kd38lY_tx-6XgPDL-57" value="/api/java/protected/check-file/{fileId}(GET)" style="text;strokeColor=none;fillColor=none;align=left;verticalAlign=middle;spacingLeft=4;spacingRight=4;overflow=hidden;points=[[0,0.5],[1,0.5]];portConstraint=eastwest;rotatable=0;whiteSpace=wrap;html=1;" parent="RTL6kd38lY_tx-6XgPDL-55" vertex="1">
          <mxGeometry y="60" width="260" height="30" as="geometry" />
        </mxCell>
        <mxCell id="RTL6kd38lY_tx-6XgPDL-58" value="/api/java/protected/upload/file&lt;div&gt;/api/java/protected/upload/file/**&lt;br&gt;&lt;/div&gt;&lt;div&gt;(POST, PATCH, HEAD, DELETE, GET)&lt;br&gt;Technology: tus.io&lt;/div&gt;" style="text;strokeColor=none;fillColor=none;align=left;verticalAlign=middle;spacingLeft=4;spacingRight=4;overflow=hidden;points=[[0,0.5],[1,0.5]];portConstraint=eastwest;rotatable=0;whiteSpace=wrap;html=1;" parent="RTL6kd38lY_tx-6XgPDL-55" vertex="1">
          <mxGeometry y="90" width="260" height="70" as="geometry" />
        </mxCell>
        <mxCell id="RTL6kd38lY_tx-6XgPDL-61" value="UserDTO" style="swimlane;fontStyle=0;childLayout=stackLayout;horizontal=1;startSize=30;horizontalStack=0;resizeParent=1;resizeParentMax=0;resizeLast=0;collapsible=1;marginBottom=0;whiteSpace=wrap;html=1;" parent="1" vertex="1">
          <mxGeometry x="-670" y="410" width="140" height="120" as="geometry" />
        </mxCell>
        <mxCell id="RTL6kd38lY_tx-6XgPDL-62" value="id(string)" style="text;strokeColor=none;fillColor=none;align=left;verticalAlign=middle;spacingLeft=4;spacingRight=4;overflow=hidden;points=[[0,0.5],[1,0.5]];portConstraint=eastwest;rotatable=0;whiteSpace=wrap;html=1;" parent="RTL6kd38lY_tx-6XgPDL-61" vertex="1">
          <mxGeometry y="30" width="140" height="30" as="geometry" />
        </mxCell>
        <mxCell id="RTL6kd38lY_tx-6XgPDL-63" value="email(string)" style="text;strokeColor=none;fillColor=none;align=left;verticalAlign=middle;spacingLeft=4;spacingRight=4;overflow=hidden;points=[[0,0.5],[1,0.5]];portConstraint=eastwest;rotatable=0;whiteSpace=wrap;html=1;" parent="RTL6kd38lY_tx-6XgPDL-61" vertex="1">
          <mxGeometry y="60" width="140" height="30" as="geometry" />
        </mxCell>
        <mxCell id="RTL6kd38lY_tx-6XgPDL-64" value="username(string)" style="text;strokeColor=none;fillColor=none;align=left;verticalAlign=middle;spacingLeft=4;spacingRight=4;overflow=hidden;points=[[0,0.5],[1,0.5]];portConstraint=eastwest;rotatable=0;whiteSpace=wrap;html=1;" parent="RTL6kd38lY_tx-6XgPDL-61" vertex="1">
          <mxGeometry y="90" width="140" height="30" as="geometry" />
        </mxCell>
        <mxCell id="RTL6kd38lY_tx-6XgPDL-65" value="AvatarSetDTO" style="swimlane;fontStyle=0;childLayout=stackLayout;horizontal=1;startSize=30;horizontalStack=0;resizeParent=1;resizeParentMax=0;resizeLast=0;collapsible=1;marginBottom=0;whiteSpace=wrap;html=1;" parent="1" vertex="1">
          <mxGeometry x="-450" y="410" width="140" height="120" as="geometry" />
        </mxCell>
        <mxCell id="RTL6kd38lY_tx-6XgPDL-66" value="small(string)" style="text;strokeColor=none;fillColor=none;align=left;verticalAlign=middle;spacingLeft=4;spacingRight=4;overflow=hidden;points=[[0,0.5],[1,0.5]];portConstraint=eastwest;rotatable=0;whiteSpace=wrap;html=1;" parent="RTL6kd38lY_tx-6XgPDL-65" vertex="1">
          <mxGeometry y="30" width="140" height="30" as="geometry" />
        </mxCell>
        <mxCell id="RTL6kd38lY_tx-6XgPDL-67" value="medium(string)" style="text;strokeColor=none;fillColor=none;align=left;verticalAlign=middle;spacingLeft=4;spacingRight=4;overflow=hidden;points=[[0,0.5],[1,0.5]];portConstraint=eastwest;rotatable=0;whiteSpace=wrap;html=1;" parent="RTL6kd38lY_tx-6XgPDL-65" vertex="1">
          <mxGeometry y="60" width="140" height="30" as="geometry" />
        </mxCell>
        <mxCell id="RTL6kd38lY_tx-6XgPDL-68" value="large(string)" style="text;strokeColor=none;fillColor=none;align=left;verticalAlign=middle;spacingLeft=4;spacingRight=4;overflow=hidden;points=[[0,0.5],[1,0.5]];portConstraint=eastwest;rotatable=0;whiteSpace=wrap;html=1;" parent="RTL6kd38lY_tx-6XgPDL-65" vertex="1">
          <mxGeometry y="90" width="140" height="30" as="geometry" />
        </mxCell>
        <mxCell id="RTL6kd38lY_tx-6XgPDL-69" value="Response" style="swimlane;fontStyle=0;childLayout=stackLayout;horizontal=1;startSize=30;horizontalStack=0;resizeParent=1;resizeParentMax=0;resizeLast=0;collapsible=1;marginBottom=0;whiteSpace=wrap;html=1;" parent="1" vertex="1">
          <mxGeometry x="-900" y="580" width="140" height="120" as="geometry" />
        </mxCell>
        <mxCell id="RTL6kd38lY_tx-6XgPDL-70" value="user(object)" style="text;strokeColor=none;fillColor=none;align=left;verticalAlign=middle;spacingLeft=4;spacingRight=4;overflow=hidden;points=[[0,0.5],[1,0.5]];portConstraint=eastwest;rotatable=0;whiteSpace=wrap;html=1;" parent="RTL6kd38lY_tx-6XgPDL-69" vertex="1">
          <mxGeometry y="30" width="140" height="30" as="geometry" />
        </mxCell>
        <mxCell id="RTL6kd38lY_tx-6XgPDL-71" value="accessToken(string)" style="text;strokeColor=none;fillColor=none;align=left;verticalAlign=middle;spacingLeft=4;spacingRight=4;overflow=hidden;points=[[0,0.5],[1,0.5]];portConstraint=eastwest;rotatable=0;whiteSpace=wrap;html=1;" parent="RTL6kd38lY_tx-6XgPDL-69" vertex="1">
          <mxGeometry y="60" width="140" height="30" as="geometry" />
        </mxCell>
        <mxCell id="RTL6kd38lY_tx-6XgPDL-72" value="avatars(object)" style="text;strokeColor=none;fillColor=none;align=left;verticalAlign=middle;spacingLeft=4;spacingRight=4;overflow=hidden;points=[[0,0.5],[1,0.5]];portConstraint=eastwest;rotatable=0;whiteSpace=wrap;html=1;" parent="RTL6kd38lY_tx-6XgPDL-69" vertex="1">
          <mxGeometry y="90" width="140" height="30" as="geometry" />
        </mxCell>
        <mxCell id="RTL6kd38lY_tx-6XgPDL-73" value="Request" style="swimlane;fontStyle=0;childLayout=stackLayout;horizontal=1;startSize=30;horizontalStack=0;resizeParent=1;resizeParentMax=0;resizeLast=0;collapsible=1;marginBottom=0;whiteSpace=wrap;html=1;" parent="1" vertex="1">
          <mxGeometry x="-1080" y="580" width="140" height="120" as="geometry" />
        </mxCell>
        <mxCell id="RTL6kd38lY_tx-6XgPDL-74" value="email(string)" style="text;strokeColor=none;fillColor=none;align=left;verticalAlign=middle;spacingLeft=4;spacingRight=4;overflow=hidden;points=[[0,0.5],[1,0.5]];portConstraint=eastwest;rotatable=0;whiteSpace=wrap;html=1;" parent="RTL6kd38lY_tx-6XgPDL-73" vertex="1">
          <mxGeometry y="30" width="140" height="30" as="geometry" />
        </mxCell>
        <mxCell id="RTL6kd38lY_tx-6XgPDL-75" value="username(string)" style="text;strokeColor=none;fillColor=none;align=left;verticalAlign=middle;spacingLeft=4;spacingRight=4;overflow=hidden;points=[[0,0.5],[1,0.5]];portConstraint=eastwest;rotatable=0;whiteSpace=wrap;html=1;" parent="RTL6kd38lY_tx-6XgPDL-73" vertex="1">
          <mxGeometry y="60" width="140" height="30" as="geometry" />
        </mxCell>
        <mxCell id="RTL6kd38lY_tx-6XgPDL-76" value="password(string)" style="text;strokeColor=none;fillColor=none;align=left;verticalAlign=middle;spacingLeft=4;spacingRight=4;overflow=hidden;points=[[0,0.5],[1,0.5]];portConstraint=eastwest;rotatable=0;whiteSpace=wrap;html=1;" parent="RTL6kd38lY_tx-6XgPDL-73" vertex="1">
          <mxGeometry y="90" width="140" height="30" as="geometry" />
        </mxCell>
        <mxCell id="RTL6kd38lY_tx-6XgPDL-77" value="Request" style="swimlane;fontStyle=0;childLayout=stackLayout;horizontal=1;startSize=30;horizontalStack=0;resizeParent=1;resizeParentMax=0;resizeLast=0;collapsible=1;marginBottom=0;whiteSpace=wrap;html=1;" parent="1" vertex="1">
          <mxGeometry x="-1080" y="746" width="140" height="90" as="geometry" />
        </mxCell>
        <mxCell id="RTL6kd38lY_tx-6XgPDL-78" value="email(string)" style="text;strokeColor=none;fillColor=none;align=left;verticalAlign=middle;spacingLeft=4;spacingRight=4;overflow=hidden;points=[[0,0.5],[1,0.5]];portConstraint=eastwest;rotatable=0;whiteSpace=wrap;html=1;" parent="RTL6kd38lY_tx-6XgPDL-77" vertex="1">
          <mxGeometry y="30" width="140" height="30" as="geometry" />
        </mxCell>
        <mxCell id="RTL6kd38lY_tx-6XgPDL-80" value="password(string)" style="text;strokeColor=none;fillColor=none;align=left;verticalAlign=middle;spacingLeft=4;spacingRight=4;overflow=hidden;points=[[0,0.5],[1,0.5]];portConstraint=eastwest;rotatable=0;whiteSpace=wrap;html=1;" parent="RTL6kd38lY_tx-6XgPDL-77" vertex="1">
          <mxGeometry y="60" width="140" height="30" as="geometry" />
        </mxCell>
        <mxCell id="RTL6kd38lY_tx-6XgPDL-81" style="edgeStyle=orthogonalEdgeStyle;rounded=0;orthogonalLoop=1;jettySize=auto;html=1;exitX=1;exitY=0.5;exitDx=0;exitDy=0;entryX=0.5;entryY=0;entryDx=0;entryDy=0;" parent="1" source="6JZ951tkPi9Nr6TmQ6ol-34" target="RTL6kd38lY_tx-6XgPDL-73" edge="1">
          <mxGeometry relative="1" as="geometry">
            <Array as="points">
              <mxPoint x="-1140" y="785" />
              <mxPoint x="-1140" y="560" />
              <mxPoint x="-1010" y="560" />
            </Array>
          </mxGeometry>
        </mxCell>
        <mxCell id="RTL6kd38lY_tx-6XgPDL-82" style="edgeStyle=orthogonalEdgeStyle;rounded=0;orthogonalLoop=1;jettySize=auto;html=1;exitX=1;exitY=0.5;exitDx=0;exitDy=0;entryX=0.5;entryY=0;entryDx=0;entryDy=0;" parent="1" source="6JZ951tkPi9Nr6TmQ6ol-34" target="RTL6kd38lY_tx-6XgPDL-69" edge="1">
          <mxGeometry relative="1" as="geometry">
            <Array as="points">
              <mxPoint x="-1140" y="785" />
              <mxPoint x="-1140" y="560" />
              <mxPoint x="-830" y="560" />
            </Array>
          </mxGeometry>
        </mxCell>
        <mxCell id="RTL6kd38lY_tx-6XgPDL-83" value="Response" style="swimlane;fontStyle=0;childLayout=stackLayout;horizontal=1;startSize=30;horizontalStack=0;resizeParent=1;resizeParentMax=0;resizeLast=0;collapsible=1;marginBottom=0;whiteSpace=wrap;html=1;" parent="1" vertex="1">
          <mxGeometry x="-900" y="746" width="140" height="120" as="geometry" />
        </mxCell>
        <mxCell id="RTL6kd38lY_tx-6XgPDL-84" value="user(object)" style="text;strokeColor=none;fillColor=none;align=left;verticalAlign=middle;spacingLeft=4;spacingRight=4;overflow=hidden;points=[[0,0.5],[1,0.5]];portConstraint=eastwest;rotatable=0;whiteSpace=wrap;html=1;" parent="RTL6kd38lY_tx-6XgPDL-83" vertex="1">
          <mxGeometry y="30" width="140" height="30" as="geometry" />
        </mxCell>
        <mxCell id="RTL6kd38lY_tx-6XgPDL-85" value="accessToken(string)" style="text;strokeColor=none;fillColor=none;align=left;verticalAlign=middle;spacingLeft=4;spacingRight=4;overflow=hidden;points=[[0,0.5],[1,0.5]];portConstraint=eastwest;rotatable=0;whiteSpace=wrap;html=1;" parent="RTL6kd38lY_tx-6XgPDL-83" vertex="1">
          <mxGeometry y="60" width="140" height="30" as="geometry" />
        </mxCell>
        <mxCell id="RTL6kd38lY_tx-6XgPDL-86" value="avatars(object)" style="text;strokeColor=none;fillColor=none;align=left;verticalAlign=middle;spacingLeft=4;spacingRight=4;overflow=hidden;points=[[0,0.5],[1,0.5]];portConstraint=eastwest;rotatable=0;whiteSpace=wrap;html=1;" parent="RTL6kd38lY_tx-6XgPDL-83" vertex="1">
          <mxGeometry y="90" width="140" height="30" as="geometry" />
        </mxCell>
        <mxCell id="RTL6kd38lY_tx-6XgPDL-87" style="edgeStyle=orthogonalEdgeStyle;rounded=0;orthogonalLoop=1;jettySize=auto;html=1;exitX=1;exitY=0.5;exitDx=0;exitDy=0;entryX=0.5;entryY=0;entryDx=0;entryDy=0;" parent="1" source="6JZ951tkPi9Nr6TmQ6ol-35" target="RTL6kd38lY_tx-6XgPDL-77" edge="1">
          <mxGeometry relative="1" as="geometry">
            <Array as="points">
              <mxPoint x="-1100" y="815" />
              <mxPoint x="-1100" y="726" />
              <mxPoint x="-1010" y="726" />
            </Array>
          </mxGeometry>
        </mxCell>
        <mxCell id="RTL6kd38lY_tx-6XgPDL-88" style="edgeStyle=orthogonalEdgeStyle;rounded=0;orthogonalLoop=1;jettySize=auto;html=1;exitX=1;exitY=0.5;exitDx=0;exitDy=0;entryX=0.5;entryY=0;entryDx=0;entryDy=0;" parent="1" source="6JZ951tkPi9Nr6TmQ6ol-35" target="RTL6kd38lY_tx-6XgPDL-83" edge="1">
          <mxGeometry relative="1" as="geometry">
            <Array as="points">
              <mxPoint x="-1100" y="815" />
              <mxPoint x="-1100" y="726" />
              <mxPoint x="-830" y="726" />
            </Array>
          </mxGeometry>
        </mxCell>
        <mxCell id="RTL6kd38lY_tx-6XgPDL-89" style="edgeStyle=orthogonalEdgeStyle;rounded=0;orthogonalLoop=1;jettySize=auto;html=1;exitX=1;exitY=0.5;exitDx=0;exitDy=0;entryX=0.5;entryY=0;entryDx=0;entryDy=0;" parent="1" source="RTL6kd38lY_tx-6XgPDL-84" target="RTL6kd38lY_tx-6XgPDL-61" edge="1">
          <mxGeometry relative="1" as="geometry" />
        </mxCell>
        <mxCell id="RTL6kd38lY_tx-6XgPDL-90" style="edgeStyle=orthogonalEdgeStyle;rounded=0;orthogonalLoop=1;jettySize=auto;html=1;exitX=1;exitY=0.5;exitDx=0;exitDy=0;entryX=0.5;entryY=0;entryDx=0;entryDy=0;" parent="1" source="RTL6kd38lY_tx-6XgPDL-70" target="RTL6kd38lY_tx-6XgPDL-61" edge="1">
          <mxGeometry relative="1" as="geometry" />
        </mxCell>
        <mxCell id="RTL6kd38lY_tx-6XgPDL-96" style="edgeStyle=orthogonalEdgeStyle;rounded=0;orthogonalLoop=1;jettySize=auto;html=1;exitX=1;exitY=0.5;exitDx=0;exitDy=0;entryX=0.5;entryY=0;entryDx=0;entryDy=0;" parent="1" source="RTL6kd38lY_tx-6XgPDL-86" target="RTL6kd38lY_tx-6XgPDL-65" edge="1">
          <mxGeometry relative="1" as="geometry">
            <Array as="points">
              <mxPoint x="-490" y="851" />
              <mxPoint x="-490" y="390" />
              <mxPoint x="-380" y="390" />
            </Array>
          </mxGeometry>
        </mxCell>
        <mxCell id="RTL6kd38lY_tx-6XgPDL-97" style="edgeStyle=orthogonalEdgeStyle;rounded=0;orthogonalLoop=1;jettySize=auto;html=1;exitX=1;exitY=0.5;exitDx=0;exitDy=0;entryX=0.5;entryY=0;entryDx=0;entryDy=0;" parent="1" source="RTL6kd38lY_tx-6XgPDL-72" target="RTL6kd38lY_tx-6XgPDL-65" edge="1">
          <mxGeometry relative="1" as="geometry">
            <Array as="points">
              <mxPoint x="-490" y="685" />
              <mxPoint x="-490" y="390" />
              <mxPoint x="-380" y="390" />
            </Array>
          </mxGeometry>
        </mxCell>
        <mxCell id="RTL6kd38lY_tx-6XgPDL-98" value="Response" style="swimlane;fontStyle=0;childLayout=stackLayout;horizontal=1;startSize=30;horizontalStack=0;resizeParent=1;resizeParentMax=0;resizeLast=0;collapsible=1;marginBottom=0;whiteSpace=wrap;html=1;" parent="1" vertex="1">
          <mxGeometry x="-900" y="900" width="140" height="60" as="geometry" />
        </mxCell>
        <mxCell id="RTL6kd38lY_tx-6XgPDL-99" value="user(object)" style="text;strokeColor=none;fillColor=none;align=left;verticalAlign=middle;spacingLeft=4;spacingRight=4;overflow=hidden;points=[[0,0.5],[1,0.5]];portConstraint=eastwest;rotatable=0;whiteSpace=wrap;html=1;" parent="RTL6kd38lY_tx-6XgPDL-98" vertex="1">
          <mxGeometry y="30" width="140" height="30" as="geometry" />
        </mxCell>
        <mxCell id="RTL6kd38lY_tx-6XgPDL-102" style="edgeStyle=orthogonalEdgeStyle;rounded=0;orthogonalLoop=1;jettySize=auto;html=1;exitX=1;exitY=0.5;exitDx=0;exitDy=0;entryX=0.5;entryY=0;entryDx=0;entryDy=0;" parent="1" source="6JZ951tkPi9Nr6TmQ6ol-36" target="RTL6kd38lY_tx-6XgPDL-98" edge="1">
          <mxGeometry relative="1" as="geometry">
            <Array as="points">
              <mxPoint x="-1190" y="845" />
              <mxPoint x="-1190" y="880" />
              <mxPoint x="-830" y="880" />
            </Array>
          </mxGeometry>
        </mxCell>
        <mxCell id="RTL6kd38lY_tx-6XgPDL-103" style="edgeStyle=orthogonalEdgeStyle;rounded=0;orthogonalLoop=1;jettySize=auto;html=1;exitX=1;exitY=0.5;exitDx=0;exitDy=0;entryX=0.5;entryY=0;entryDx=0;entryDy=0;" parent="1" source="RTL6kd38lY_tx-6XgPDL-99" target="RTL6kd38lY_tx-6XgPDL-61" edge="1">
          <mxGeometry relative="1" as="geometry" />
        </mxCell>
        <mxCell id="RTL6kd38lY_tx-6XgPDL-105" value="" style="rounded=0;whiteSpace=wrap;html=1;" parent="1" vertex="1">
          <mxGeometry x="-180" y="324" width="900" height="656" as="geometry" />
        </mxCell>
        <mxCell id="RTL6kd38lY_tx-6XgPDL-108" value="&lt;span style=&quot;color: rgb(240, 240, 240); font-family: Helvetica; font-size: 12px; font-style: normal; font-variant-ligatures: normal; font-variant-caps: normal; font-weight: 400; letter-spacing: normal; orphans: 2; text-align: center; text-indent: 0px; text-transform: none; widows: 2; word-spacing: 0px; -webkit-text-stroke-width: 0px; white-space: nowrap; background-color: rgb(27, 29, 30); text-decoration-thickness: initial; text-decoration-style: initial; text-decoration-color: initial; display: inline !important; float: none;&quot;&gt;/api/php/&lt;/span&gt;" style="text;html=1;align=center;verticalAlign=middle;whiteSpace=wrap;rounded=0;" parent="1" vertex="1">
          <mxGeometry x="180" y="290" width="90" height="34" as="geometry" />
        </mxCell>
        <mxCell id="RTL6kd38lY_tx-6XgPDL-117" style="edgeStyle=orthogonalEdgeStyle;rounded=0;orthogonalLoop=1;jettySize=auto;html=1;exitX=1;exitY=0.5;exitDx=0;exitDy=0;entryX=0.5;entryY=0;entryDx=0;entryDy=0;" parent="1" source="RTL6kd38lY_tx-6XgPDL-109" target="RTL6kd38lY_tx-6XgPDL-111" edge="1">
          <mxGeometry relative="1" as="geometry" />
        </mxCell>
        <mxCell id="RTL6kd38lY_tx-6XgPDL-109" value="PHP Laravel" style="rhombus;whiteSpace=wrap;html=1;" parent="1" vertex="1">
          <mxGeometry x="-145" y="350" width="140" height="120" as="geometry" />
        </mxCell>
        <mxCell id="RTL6kd38lY_tx-6XgPDL-111" value="" style="shape=parallelogram;perimeter=parallelogramPerimeter;whiteSpace=wrap;html=1;fixedSize=1;" parent="1" vertex="1">
          <mxGeometry x="40" y="444" width="270" height="93" as="geometry" />
        </mxCell>
        <mxCell id="RTL6kd38lY_tx-6XgPDL-112" value="&lt;p style=&quot;line-height: 120%; font-size: 10px;&quot;&gt;Will call&amp;nbsp;&lt;span style=&quot;background-color: initial;&quot;&gt;this procedure to validate token and return associated user every authorized request.&lt;br&gt;&lt;br&gt;Otherwise if it&#39;s request to any available public route, procedure won&#39;t be called.&lt;/span&gt;&lt;/p&gt;" style="text;html=1;align=left;verticalAlign=middle;whiteSpace=wrap;rounded=0;" parent="1" vertex="1">
          <mxGeometry x="65" y="464" width="220" height="68.5" as="geometry" />
        </mxCell>
        <mxCell id="RTL6kd38lY_tx-6XgPDL-113" style="edgeStyle=orthogonalEdgeStyle;rounded=0;orthogonalLoop=1;jettySize=auto;html=1;exitX=0;exitY=0.75;exitDx=0;exitDy=0;entryX=1;entryY=0.5;entryDx=0;entryDy=0;" parent="1" source="RTL6kd38lY_tx-6XgPDL-114" target="RTL6kd38lY_tx-6XgPDL-112" edge="1">
          <mxGeometry relative="1" as="geometry">
            <Array as="points">
              <mxPoint x="360" y="498" />
            </Array>
          </mxGeometry>
        </mxCell>
        <mxCell id="RTL6kd38lY_tx-6XgPDL-114" value="GRPC Client" style="swimlane;fontStyle=0;childLayout=stackLayout;horizontal=1;startSize=30;horizontalStack=0;resizeParent=1;resizeParentMax=0;resizeLast=0;collapsible=1;marginBottom=0;whiteSpace=wrap;html=1;" parent="1" vertex="1">
          <mxGeometry x="360" y="451" width="140" height="60" as="geometry" />
        </mxCell>
        <mxCell id="RTL6kd38lY_tx-6XgPDL-115" value="ValidateToken" style="text;strokeColor=none;fillColor=none;align=left;verticalAlign=middle;spacingLeft=4;spacingRight=4;overflow=hidden;points=[[0,0.5],[1,0.5]];portConstraint=eastwest;rotatable=0;whiteSpace=wrap;html=1;" parent="RTL6kd38lY_tx-6XgPDL-114" vertex="1">
          <mxGeometry y="30" width="140" height="30" as="geometry" />
        </mxCell>
        <mxCell id="RTL6kd38lY_tx-6XgPDL-118" value="UserDTO" style="swimlane;fontStyle=0;childLayout=stackLayout;horizontal=1;startSize=30;horizontalStack=0;resizeParent=1;resizeParentMax=0;resizeLast=0;collapsible=1;marginBottom=0;whiteSpace=wrap;html=1;" parent="1" vertex="1">
          <mxGeometry x="-1200" y="-350" width="140" height="120" as="geometry" />
        </mxCell>
        <mxCell id="RTL6kd38lY_tx-6XgPDL-119" value="id(string)" style="text;strokeColor=none;fillColor=none;align=left;verticalAlign=middle;spacingLeft=4;spacingRight=4;overflow=hidden;points=[[0,0.5],[1,0.5]];portConstraint=eastwest;rotatable=0;whiteSpace=wrap;html=1;" parent="RTL6kd38lY_tx-6XgPDL-118" vertex="1">
          <mxGeometry y="30" width="140" height="30" as="geometry" />
        </mxCell>
        <mxCell id="RTL6kd38lY_tx-6XgPDL-120" value="email(string)" style="text;strokeColor=none;fillColor=none;align=left;verticalAlign=middle;spacingLeft=4;spacingRight=4;overflow=hidden;points=[[0,0.5],[1,0.5]];portConstraint=eastwest;rotatable=0;whiteSpace=wrap;html=1;" parent="RTL6kd38lY_tx-6XgPDL-118" vertex="1">
          <mxGeometry y="60" width="140" height="30" as="geometry" />
        </mxCell>
        <mxCell id="RTL6kd38lY_tx-6XgPDL-121" value="username(string)" style="text;strokeColor=none;fillColor=none;align=left;verticalAlign=middle;spacingLeft=4;spacingRight=4;overflow=hidden;points=[[0,0.5],[1,0.5]];portConstraint=eastwest;rotatable=0;whiteSpace=wrap;html=1;" parent="RTL6kd38lY_tx-6XgPDL-118" vertex="1">
          <mxGeometry y="90" width="140" height="30" as="geometry" />
        </mxCell>
        <mxCell id="RTL6kd38lY_tx-6XgPDL-122" style="edgeStyle=orthogonalEdgeStyle;rounded=0;orthogonalLoop=1;jettySize=auto;html=1;exitX=0;exitY=0.5;exitDx=0;exitDy=0;entryX=0.5;entryY=0;entryDx=0;entryDy=0;" parent="1" source="QxZh3QZaXFdnJh5QPRap-79" target="RTL6kd38lY_tx-6XgPDL-118" edge="1">
          <mxGeometry relative="1" as="geometry" />
        </mxCell>
        <mxCell id="RTL6kd38lY_tx-6XgPDL-124" value="Response" style="swimlane;fontStyle=0;childLayout=stackLayout;horizontal=1;startSize=30;horizontalStack=0;resizeParent=1;resizeParentMax=0;resizeLast=0;collapsible=1;marginBottom=0;whiteSpace=wrap;html=1;" parent="1" vertex="1">
          <mxGeometry x="-1815" y="1000" width="140" height="60" as="geometry" />
        </mxCell>
        <mxCell id="RTL6kd38lY_tx-6XgPDL-125" value="fileId(string)" style="text;strokeColor=none;fillColor=none;align=left;verticalAlign=middle;spacingLeft=4;spacingRight=4;overflow=hidden;points=[[0,0.5],[1,0.5]];portConstraint=eastwest;rotatable=0;whiteSpace=wrap;html=1;" parent="RTL6kd38lY_tx-6XgPDL-124" vertex="1">
          <mxGeometry y="30" width="140" height="30" as="geometry" />
        </mxCell>
        <mxCell id="RTL6kd38lY_tx-6XgPDL-126" style="edgeStyle=orthogonalEdgeStyle;rounded=0;orthogonalLoop=1;jettySize=auto;html=1;exitX=1;exitY=0.5;exitDx=0;exitDy=0;entryX=0.5;entryY=0;entryDx=0;entryDy=0;" parent="1" source="RTL6kd38lY_tx-6XgPDL-56" target="RTL6kd38lY_tx-6XgPDL-124" edge="1">
          <mxGeometry relative="1" as="geometry">
            <Array as="points">
              <mxPoint x="-1880" y="1185" />
              <mxPoint x="-1880" y="980" />
              <mxPoint x="-1745" y="980" />
            </Array>
          </mxGeometry>
        </mxCell>
        <mxCell id="RTL6kd38lY_tx-6XgPDL-127" value="Response" style="swimlane;fontStyle=0;childLayout=stackLayout;horizontal=1;startSize=30;horizontalStack=0;resizeParent=1;resizeParentMax=0;resizeLast=0;collapsible=1;marginBottom=0;whiteSpace=wrap;html=1;" parent="1" vertex="1">
          <mxGeometry x="-1815" y="1100" width="140" height="60" as="geometry" />
        </mxCell>
        <mxCell id="RTL6kd38lY_tx-6XgPDL-128" value="isFileExists(bool)" style="text;strokeColor=none;fillColor=none;align=left;verticalAlign=middle;spacingLeft=4;spacingRight=4;overflow=hidden;points=[[0,0.5],[1,0.5]];portConstraint=eastwest;rotatable=0;whiteSpace=wrap;html=1;" parent="RTL6kd38lY_tx-6XgPDL-127" vertex="1">
          <mxGeometry y="30" width="140" height="30" as="geometry" />
        </mxCell>
        <mxCell id="RTL6kd38lY_tx-6XgPDL-130" value="Tus.io Metadata for Request" style="swimlane;fontStyle=0;childLayout=stackLayout;horizontal=1;startSize=30;horizontalStack=0;resizeParent=1;resizeParentMax=0;resizeLast=0;collapsible=1;marginBottom=0;whiteSpace=wrap;html=1;" parent="1" vertex="1">
          <mxGeometry x="-1665" y="1200" width="140" height="60" as="geometry" />
        </mxCell>
        <mxCell id="RTL6kd38lY_tx-6XgPDL-131" value="fileId(string)" style="text;strokeColor=none;fillColor=none;align=left;verticalAlign=middle;spacingLeft=4;spacingRight=4;overflow=hidden;points=[[0,0.5],[1,0.5]];portConstraint=eastwest;rotatable=0;whiteSpace=wrap;html=1;" parent="RTL6kd38lY_tx-6XgPDL-130" vertex="1">
          <mxGeometry y="30" width="140" height="30" as="geometry" />
        </mxCell>
        <mxCell id="RTL6kd38lY_tx-6XgPDL-133" style="edgeStyle=orthogonalEdgeStyle;rounded=0;orthogonalLoop=1;jettySize=auto;html=1;exitX=1;exitY=0.5;exitDx=0;exitDy=0;entryX=0.5;entryY=0;entryDx=0;entryDy=0;" parent="1" source="RTL6kd38lY_tx-6XgPDL-58" target="RTL6kd38lY_tx-6XgPDL-130" edge="1">
          <mxGeometry relative="1" as="geometry">
            <Array as="points">
              <mxPoint x="-1840" y="1265" />
              <mxPoint x="-1840" y="1180" />
              <mxPoint x="-1595" y="1180" />
            </Array>
          </mxGeometry>
        </mxCell>
        <mxCell id="RTL6kd38lY_tx-6XgPDL-135" style="edgeStyle=orthogonalEdgeStyle;rounded=0;orthogonalLoop=1;jettySize=auto;html=1;exitX=1;exitY=0.5;exitDx=0;exitDy=0;entryX=0.5;entryY=0;entryDx=0;entryDy=0;" parent="1" source="RTL6kd38lY_tx-6XgPDL-57" target="RTL6kd38lY_tx-6XgPDL-127" edge="1">
          <mxGeometry relative="1" as="geometry">
            <Array as="points">
              <mxPoint x="-1860" y="1215" />
              <mxPoint x="-1860" y="1080" />
              <mxPoint x="-1745" y="1080" />
            </Array>
          </mxGeometry>
        </mxCell>
        <mxCell id="RTL6kd38lY_tx-6XgPDL-140" value="Middleware" style="text;html=1;align=center;verticalAlign=middle;whiteSpace=wrap;rounded=0;" parent="1" vertex="1">
          <mxGeometry x="137.5" y="444" width="75" height="20" as="geometry" />
        </mxCell>
        <mxCell id="rFY-rz_WOS9prxRwEmC6-1" value="Collection" style="swimlane;fontStyle=0;childLayout=stackLayout;horizontal=1;startSize=30;horizontalStack=0;resizeParent=1;resizeParentMax=0;resizeLast=0;collapsible=1;marginBottom=0;whiteSpace=wrap;html=1;" parent="1" vertex="1">
          <mxGeometry x="-2117.5" y="-1172" width="235" height="210" as="geometry" />
        </mxCell>
        <mxCell id="rFY-rz_WOS9prxRwEmC6-2" value="+ id : UUID string" style="text;strokeColor=none;fillColor=none;align=left;verticalAlign=middle;spacingLeft=4;spacingRight=4;overflow=hidden;points=[[0,0.5],[1,0.5]];portConstraint=eastwest;rotatable=0;whiteSpace=wrap;html=1;" parent="rFY-rz_WOS9prxRwEmC6-1" vertex="1">
          <mxGeometry y="30" width="235" height="30" as="geometry" />
        </mxCell>
        <mxCell id="rFY-rz_WOS9prxRwEmC6-3" value="+ name : NVARCHAR (100)" style="text;strokeColor=none;fillColor=none;align=left;verticalAlign=middle;spacingLeft=4;spacingRight=4;overflow=hidden;points=[[0,0.5],[1,0.5]];portConstraint=eastwest;rotatable=0;whiteSpace=wrap;html=1;" parent="rFY-rz_WOS9prxRwEmC6-1" vertex="1">
          <mxGeometry y="60" width="235" height="30" as="geometry" />
        </mxCell>
        <mxCell id="rFY-rz_WOS9prxRwEmC6-4" value="+ numberOfSongs : SMALLINT" style="text;strokeColor=none;fillColor=none;align=left;verticalAlign=middle;spacingLeft=4;spacingRight=4;overflow=hidden;points=[[0,0.5],[1,0.5]];portConstraint=eastwest;rotatable=0;whiteSpace=wrap;html=1;" parent="rFY-rz_WOS9prxRwEmC6-1" vertex="1">
          <mxGeometry y="90" width="235" height="30" as="geometry" />
        </mxCell>
        <mxCell id="rFY-rz_WOS9prxRwEmC6-17" value="+ duration : INTEGER" style="text;strokeColor=none;fillColor=none;align=left;verticalAlign=middle;spacingLeft=4;spacingRight=4;overflow=hidden;points=[[0,0.5],[1,0.5]];portConstraint=eastwest;rotatable=0;whiteSpace=wrap;html=1;" parent="rFY-rz_WOS9prxRwEmC6-1" vertex="1">
          <mxGeometry y="120" width="235" height="30" as="geometry" />
        </mxCell>
        <mxCell id="EfcInkHwceWXl7_W82CV-8" value="+ isPrivate : BOOLEAN" style="text;strokeColor=none;fillColor=none;align=left;verticalAlign=middle;spacingLeft=4;spacingRight=4;overflow=hidden;points=[[0,0.5],[1,0.5]];portConstraint=eastwest;rotatable=0;whiteSpace=wrap;html=1;" parent="rFY-rz_WOS9prxRwEmC6-1" vertex="1">
          <mxGeometry y="150" width="235" height="30" as="geometry" />
        </mxCell>
        <mxCell id="rFY-rz_WOS9prxRwEmC6-21" value="+ createdAt : DATETIME" style="text;strokeColor=none;fillColor=none;align=left;verticalAlign=middle;spacingLeft=4;spacingRight=4;overflow=hidden;points=[[0,0.5],[1,0.5]];portConstraint=eastwest;rotatable=0;whiteSpace=wrap;html=1;" parent="rFY-rz_WOS9prxRwEmC6-1" vertex="1">
          <mxGeometry y="180" width="235" height="30" as="geometry" />
        </mxCell>
        <mxCell id="rFY-rz_WOS9prxRwEmC6-5" value="Release" style="swimlane;fontStyle=0;childLayout=stackLayout;horizontal=1;startSize=30;horizontalStack=0;resizeParent=1;resizeParentMax=0;resizeLast=0;collapsible=1;marginBottom=0;whiteSpace=wrap;html=1;" parent="1" vertex="1">
          <mxGeometry x="-1722.21" y="-1480" width="207.5" height="480" as="geometry" />
        </mxCell>
        <mxCell id="rFY-rz_WOS9prxRwEmC6-6" value="+ id : UUID string" style="text;strokeColor=none;fillColor=none;align=left;verticalAlign=middle;spacingLeft=4;spacingRight=4;overflow=hidden;points=[[0,0.5],[1,0.5]];portConstraint=eastwest;rotatable=0;whiteSpace=wrap;html=1;" parent="rFY-rz_WOS9prxRwEmC6-5" vertex="1">
          <mxGeometry y="30" width="207.5" height="30" as="geometry" />
        </mxCell>
        <mxCell id="rFY-rz_WOS9prxRwEmC6-62" value="+ artist" style="text;strokeColor=none;fillColor=none;align=left;verticalAlign=middle;spacingLeft=4;spacingRight=4;overflow=hidden;points=[[0,0.5],[1,0.5]];portConstraint=eastwest;rotatable=0;whiteSpace=wrap;html=1;" parent="rFY-rz_WOS9prxRwEmC6-5" vertex="1">
          <mxGeometry y="60" width="207.5" height="30" as="geometry" />
        </mxCell>
        <mxCell id="rFY-rz_WOS9prxRwEmC6-7" value="+ collection" style="text;strokeColor=none;fillColor=none;align=left;verticalAlign=middle;spacingLeft=4;spacingRight=4;overflow=hidden;points=[[0,0.5],[1,0.5]];portConstraint=eastwest;rotatable=0;whiteSpace=wrap;html=1;" parent="rFY-rz_WOS9prxRwEmC6-5" vertex="1">
          <mxGeometry y="90" width="207.5" height="30" as="geometry" />
        </mxCell>
        <mxCell id="rFY-rz_WOS9prxRwEmC6-8" value="+ releaseDate : DATE" style="text;strokeColor=none;fillColor=none;align=left;verticalAlign=middle;spacingLeft=4;spacingRight=4;overflow=hidden;points=[[0,0.5],[1,0.5]];portConstraint=eastwest;rotatable=0;whiteSpace=wrap;html=1;" parent="rFY-rz_WOS9prxRwEmC6-5" vertex="1">
          <mxGeometry y="120" width="207.5" height="30" as="geometry" />
        </mxCell>
        <mxCell id="rFY-rz_WOS9prxRwEmC6-22" value="+ type : VARCHAR&lt;span style=&quot;background-color: initial;&quot;&gt;&amp;nbsp;(6)&lt;/span&gt;" style="text;strokeColor=none;fillColor=none;align=left;verticalAlign=middle;spacingLeft=4;spacingRight=4;overflow=hidden;points=[[0,0.5],[1,0.5]];portConstraint=eastwest;rotatable=0;whiteSpace=wrap;html=1;" parent="rFY-rz_WOS9prxRwEmC6-5" vertex="1">
          <mxGeometry y="150" width="207.5" height="30" as="geometry" />
        </mxCell>
        <mxCell id="rFY-rz_WOS9prxRwEmC6-42" value="+ buyLink : VARCHAR&lt;span style=&quot;background-color: initial;&quot;&gt;&amp;nbsp;(300)&lt;/span&gt;" style="text;strokeColor=none;fillColor=none;align=left;verticalAlign=middle;spacingLeft=4;spacingRight=4;overflow=hidden;points=[[0,0.5],[1,0.5]];portConstraint=eastwest;rotatable=0;whiteSpace=wrap;html=1;" parent="rFY-rz_WOS9prxRwEmC6-5" vertex="1">
          <mxGeometry y="180" width="207.5" height="30" as="geometry" />
        </mxCell>
        <mxCell id="rFY-rz_WOS9prxRwEmC6-43" value="+ recordLabel : VARCHAR&lt;span style=&quot;background-color: initial;&quot;&gt;&amp;nbsp;(300)&lt;/span&gt;" style="text;strokeColor=none;fillColor=none;align=left;verticalAlign=middle;spacingLeft=4;spacingRight=4;overflow=hidden;points=[[0,0.5],[1,0.5]];portConstraint=eastwest;rotatable=0;whiteSpace=wrap;html=1;" parent="rFY-rz_WOS9prxRwEmC6-5" vertex="1">
          <mxGeometry y="210" width="207.5" height="30" as="geometry" />
        </mxCell>
        <mxCell id="EfcInkHwceWXl7_W82CV-9" value="+ listenersLiked" style="text;strokeColor=none;fillColor=none;align=left;verticalAlign=middle;spacingLeft=4;spacingRight=4;overflow=hidden;points=[[0,0.5],[1,0.5]];portConstraint=eastwest;rotatable=0;whiteSpace=wrap;html=1;" parent="rFY-rz_WOS9prxRwEmC6-5" vertex="1">
          <mxGeometry y="240" width="207.5" height="30" as="geometry" />
        </mxCell>
        <mxCell id="EfcInkHwceWXl7_W82CV-31" value="+ listenersReposted" style="text;strokeColor=none;fillColor=none;align=left;verticalAlign=middle;spacingLeft=4;spacingRight=4;overflow=hidden;points=[[0,0.5],[1,0.5]];portConstraint=eastwest;rotatable=0;whiteSpace=wrap;html=1;" parent="rFY-rz_WOS9prxRwEmC6-5" vertex="1">
          <mxGeometry y="270" width="207.5" height="30" as="geometry" />
        </mxCell>
        <mxCell id="rFY-rz_WOS9prxRwEmC6-28" value="+ songs" style="text;strokeColor=none;fillColor=none;align=left;verticalAlign=middle;spacingLeft=4;spacingRight=4;overflow=hidden;points=[[0,0.5],[1,0.5]];portConstraint=eastwest;rotatable=0;whiteSpace=wrap;html=1;" parent="rFY-rz_WOS9prxRwEmC6-5" vertex="1">
          <mxGeometry y="300" width="207.5" height="30" as="geometry" />
        </mxCell>
        <mxCell id="rFY-rz_WOS9prxRwEmC6-44" value="+ isAllRightsReserved&lt;span style=&quot;background-color: initial;&quot;&gt;&amp;nbsp;: BOOLEAN&lt;/span&gt;" style="text;strokeColor=none;fillColor=none;align=left;verticalAlign=middle;spacingLeft=4;spacingRight=4;overflow=hidden;points=[[0,0.5],[1,0.5]];portConstraint=eastwest;rotatable=0;whiteSpace=wrap;html=1;" parent="rFY-rz_WOS9prxRwEmC6-5" vertex="1">
          <mxGeometry y="330" width="207.5" height="30" as="geometry" />
        </mxCell>
        <mxCell id="rFY-rz_WOS9prxRwEmC6-45" value="+ isAttribution&lt;span style=&quot;background-color: initial;&quot;&gt;&amp;nbsp;: BOOLEAN&lt;/span&gt;" style="text;strokeColor=none;fillColor=none;align=left;verticalAlign=middle;spacingLeft=4;spacingRight=4;overflow=hidden;points=[[0,0.5],[1,0.5]];portConstraint=eastwest;rotatable=0;whiteSpace=wrap;html=1;" parent="rFY-rz_WOS9prxRwEmC6-5" vertex="1">
          <mxGeometry y="360" width="207.5" height="30" as="geometry" />
        </mxCell>
        <mxCell id="rFY-rz_WOS9prxRwEmC6-46" value="+ isNoncommercial&lt;span style=&quot;background-color: initial;&quot;&gt;&amp;nbsp;: BOOLEAN&lt;/span&gt;" style="text;strokeColor=none;fillColor=none;align=left;verticalAlign=middle;spacingLeft=4;spacingRight=4;overflow=hidden;points=[[0,0.5],[1,0.5]];portConstraint=eastwest;rotatable=0;whiteSpace=wrap;html=1;" parent="rFY-rz_WOS9prxRwEmC6-5" vertex="1">
          <mxGeometry y="390" width="207.5" height="30" as="geometry" />
        </mxCell>
        <mxCell id="rFY-rz_WOS9prxRwEmC6-47" value="+ isNoDerivativeWorks&lt;span style=&quot;background-color: initial;&quot;&gt;&amp;nbsp;: BOOLEAN&lt;/span&gt;" style="text;strokeColor=none;fillColor=none;align=left;verticalAlign=middle;spacingLeft=4;spacingRight=4;overflow=hidden;points=[[0,0.5],[1,0.5]];portConstraint=eastwest;rotatable=0;whiteSpace=wrap;html=1;" parent="rFY-rz_WOS9prxRwEmC6-5" vertex="1">
          <mxGeometry y="420" width="207.5" height="30" as="geometry" />
        </mxCell>
        <mxCell id="rFY-rz_WOS9prxRwEmC6-48" value="+ isShareAlike&lt;span style=&quot;background-color: initial;&quot;&gt;&amp;nbsp;: BOOLEAN&lt;/span&gt;" style="text;strokeColor=none;fillColor=none;align=left;verticalAlign=middle;spacingLeft=4;spacingRight=4;overflow=hidden;points=[[0,0.5],[1,0.5]];portConstraint=eastwest;rotatable=0;whiteSpace=wrap;html=1;" parent="rFY-rz_WOS9prxRwEmC6-5" vertex="1">
          <mxGeometry y="450" width="207.5" height="30" as="geometry" />
        </mxCell>
        <mxCell id="rFY-rz_WOS9prxRwEmC6-9" value="Playlist" style="swimlane;fontStyle=0;childLayout=stackLayout;horizontal=1;startSize=30;horizontalStack=0;resizeParent=1;resizeParentMax=0;resizeLast=0;collapsible=1;marginBottom=0;whiteSpace=wrap;html=1;" parent="1" vertex="1">
          <mxGeometry x="-1712.21" y="-860" width="187.5" height="240" as="geometry" />
        </mxCell>
        <mxCell id="rFY-rz_WOS9prxRwEmC6-10" value="+ id : UUID string" style="text;strokeColor=none;fillColor=none;align=left;verticalAlign=middle;spacingLeft=4;spacingRight=4;overflow=hidden;points=[[0,0.5],[1,0.5]];portConstraint=eastwest;rotatable=0;whiteSpace=wrap;html=1;" parent="rFY-rz_WOS9prxRwEmC6-9" vertex="1">
          <mxGeometry y="30" width="187.5" height="30" as="geometry" />
        </mxCell>
        <mxCell id="rFY-rz_WOS9prxRwEmC6-11" value="+ collection" style="text;strokeColor=none;fillColor=none;align=left;verticalAlign=middle;spacingLeft=4;spacingRight=4;overflow=hidden;points=[[0,0.5],[1,0.5]];portConstraint=eastwest;rotatable=0;whiteSpace=wrap;html=1;" parent="rFY-rz_WOS9prxRwEmC6-9" vertex="1">
          <mxGeometry y="60" width="187.5" height="30" as="geometry" />
        </mxCell>
        <mxCell id="rFY-rz_WOS9prxRwEmC6-12" value="+ description : NVARCHAR (300)" style="text;strokeColor=none;fillColor=none;align=left;verticalAlign=middle;spacingLeft=4;spacingRight=4;overflow=hidden;points=[[0,0.5],[1,0.5]];portConstraint=eastwest;rotatable=0;whiteSpace=wrap;html=1;" parent="rFY-rz_WOS9prxRwEmC6-9" vertex="1">
          <mxGeometry y="90" width="187.5" height="30" as="geometry" />
        </mxCell>
        <mxCell id="rFY-rz_WOS9prxRwEmC6-29" value="+ songs" style="text;strokeColor=none;fillColor=none;align=left;verticalAlign=middle;spacingLeft=4;spacingRight=4;overflow=hidden;points=[[0,0.5],[1,0.5]];portConstraint=eastwest;rotatable=0;whiteSpace=wrap;html=1;" parent="rFY-rz_WOS9prxRwEmC6-9" vertex="1">
          <mxGeometry y="120" width="187.5" height="30" as="geometry" />
        </mxCell>
        <mxCell id="EfcInkHwceWXl7_W82CV-32" value="+ listenersReposted" style="text;strokeColor=none;fillColor=none;align=left;verticalAlign=middle;spacingLeft=4;spacingRight=4;overflow=hidden;points=[[0,0.5],[1,0.5]];portConstraint=eastwest;rotatable=0;whiteSpace=wrap;html=1;" parent="rFY-rz_WOS9prxRwEmC6-9" vertex="1">
          <mxGeometry y="150" width="187.5" height="30" as="geometry" />
        </mxCell>
        <mxCell id="rFY-rz_WOS9prxRwEmC6-75" value="+ listenersLiked" style="text;strokeColor=none;fillColor=none;align=left;verticalAlign=middle;spacingLeft=4;spacingRight=4;overflow=hidden;points=[[0,0.5],[1,0.5]];portConstraint=eastwest;rotatable=0;whiteSpace=wrap;html=1;" parent="rFY-rz_WOS9prxRwEmC6-9" vertex="1">
          <mxGeometry y="180" width="187.5" height="30" as="geometry" />
        </mxCell>
        <mxCell id="rFY-rz_WOS9prxRwEmC6-74" value="+ creator" style="text;strokeColor=none;fillColor=none;align=left;verticalAlign=middle;spacingLeft=4;spacingRight=4;overflow=hidden;points=[[0,0.5],[1,0.5]];portConstraint=eastwest;rotatable=0;whiteSpace=wrap;html=1;" parent="rFY-rz_WOS9prxRwEmC6-9" vertex="1">
          <mxGeometry y="210" width="187.5" height="30" as="geometry" />
        </mxCell>
        <mxCell id="rFY-rz_WOS9prxRwEmC6-13" value="Song" style="swimlane;fontStyle=0;childLayout=stackLayout;horizontal=1;startSize=30;horizontalStack=0;resizeParent=1;resizeParentMax=0;resizeLast=0;collapsible=1;marginBottom=0;whiteSpace=wrap;html=1;" parent="1" vertex="1">
          <mxGeometry x="-1421.77" y="-1140" width="170" height="420" as="geometry" />
        </mxCell>
        <mxCell id="rFY-rz_WOS9prxRwEmC6-14" value="+ id : UUID string" style="text;strokeColor=none;fillColor=none;align=left;verticalAlign=middle;spacingLeft=4;spacingRight=4;overflow=hidden;points=[[0,0.5],[1,0.5]];portConstraint=eastwest;rotatable=0;whiteSpace=wrap;html=1;" parent="rFY-rz_WOS9prxRwEmC6-13" vertex="1">
          <mxGeometry y="30" width="170" height="30" as="geometry" />
        </mxCell>
        <mxCell id="rFY-rz_WOS9prxRwEmC6-32" value="+ release" style="text;strokeColor=none;fillColor=none;align=left;verticalAlign=middle;spacingLeft=4;spacingRight=4;overflow=hidden;points=[[0,0.5],[1,0.5]];portConstraint=eastwest;rotatable=0;whiteSpace=wrap;html=1;" parent="rFY-rz_WOS9prxRwEmC6-13" vertex="1">
          <mxGeometry y="60" width="170" height="30" as="geometry" />
        </mxCell>
        <mxCell id="rFY-rz_WOS9prxRwEmC6-37" value="+ placeNumber : SMALLINT" style="text;strokeColor=none;fillColor=none;align=left;verticalAlign=middle;spacingLeft=4;spacingRight=4;overflow=hidden;points=[[0,0.5],[1,0.5]];portConstraint=eastwest;rotatable=0;whiteSpace=wrap;html=1;" parent="rFY-rz_WOS9prxRwEmC6-13" vertex="1">
          <mxGeometry y="90" width="170" height="30" as="geometry" />
        </mxCell>
        <mxCell id="rFY-rz_WOS9prxRwEmC6-15" value="+ name : NVARCHAR (100)" style="text;strokeColor=none;fillColor=none;align=left;verticalAlign=middle;spacingLeft=4;spacingRight=4;overflow=hidden;points=[[0,0.5],[1,0.5]];portConstraint=eastwest;rotatable=0;whiteSpace=wrap;html=1;" parent="rFY-rz_WOS9prxRwEmC6-13" vertex="1">
          <mxGeometry y="120" width="170" height="30" as="geometry" />
        </mxCell>
        <mxCell id="cIepVJIdWPNUekeXTL3l-1" value="+ duration : SMALLINT" style="text;strokeColor=none;fillColor=none;align=left;verticalAlign=middle;spacingLeft=4;spacingRight=4;overflow=hidden;points=[[0,0.5],[1,0.5]];portConstraint=eastwest;rotatable=0;whiteSpace=wrap;html=1;" parent="rFY-rz_WOS9prxRwEmC6-13" vertex="1">
          <mxGeometry y="150" width="170" height="30" as="geometry" />
        </mxCell>
        <mxCell id="PgTkkJ_BFa4D4Vha9WE_-1" value="+ genres" style="text;strokeColor=none;fillColor=none;align=left;verticalAlign=middle;spacingLeft=4;spacingRight=4;overflow=hidden;points=[[0,0.5],[1,0.5]];portConstraint=eastwest;rotatable=0;whiteSpace=wrap;html=1;" parent="rFY-rz_WOS9prxRwEmC6-13" vertex="1">
          <mxGeometry y="180" width="170" height="30" as="geometry" />
        </mxCell>
        <mxCell id="PgTkkJ_BFa4D4Vha9WE_-11" value="+ tags" style="text;strokeColor=none;fillColor=none;align=left;verticalAlign=middle;spacingLeft=4;spacingRight=4;overflow=hidden;points=[[0,0.5],[1,0.5]];portConstraint=eastwest;rotatable=0;whiteSpace=wrap;html=1;" parent="rFY-rz_WOS9prxRwEmC6-13" vertex="1">
          <mxGeometry y="210" width="170" height="30" as="geometry" />
        </mxCell>
        <mxCell id="rFY-rz_WOS9prxRwEmC6-16" value="+ comments" style="text;strokeColor=none;fillColor=none;align=left;verticalAlign=middle;spacingLeft=4;spacingRight=4;overflow=hidden;points=[[0,0.5],[1,0.5]];portConstraint=eastwest;rotatable=0;whiteSpace=wrap;html=1;" parent="rFY-rz_WOS9prxRwEmC6-13" vertex="1">
          <mxGeometry y="240" width="170" height="30" as="geometry" />
        </mxCell>
        <mxCell id="EfcInkHwceWXl7_W82CV-16" value="+ listenersLiked" style="text;strokeColor=none;fillColor=none;align=left;verticalAlign=middle;spacingLeft=4;spacingRight=4;overflow=hidden;points=[[0,0.5],[1,0.5]];portConstraint=eastwest;rotatable=0;whiteSpace=wrap;html=1;" parent="rFY-rz_WOS9prxRwEmC6-13" vertex="1">
          <mxGeometry y="270" width="170" height="30" as="geometry" />
        </mxCell>
        <mxCell id="EfcInkHwceWXl7_W82CV-30" value="+ listenersReposted" style="text;strokeColor=none;fillColor=none;align=left;verticalAlign=middle;spacingLeft=4;spacingRight=4;overflow=hidden;points=[[0,0.5],[1,0.5]];portConstraint=eastwest;rotatable=0;whiteSpace=wrap;html=1;" parent="rFY-rz_WOS9prxRwEmC6-13" vertex="1">
          <mxGeometry y="300" width="170" height="30" as="geometry" />
        </mxCell>
        <mxCell id="rFY-rz_WOS9prxRwEmC6-39" value="+ playlists" style="text;strokeColor=none;fillColor=none;align=left;verticalAlign=middle;spacingLeft=4;spacingRight=4;overflow=hidden;points=[[0,0.5],[1,0.5]];portConstraint=eastwest;rotatable=0;whiteSpace=wrap;html=1;" parent="rFY-rz_WOS9prxRwEmC6-13" vertex="1">
          <mxGeometry y="330" width="170" height="30" as="geometry" />
        </mxCell>
        <mxCell id="rFY-rz_WOS9prxRwEmC6-30" value="+ createdAt : DATETIME" style="text;strokeColor=none;fillColor=none;align=left;verticalAlign=middle;spacingLeft=4;spacingRight=4;overflow=hidden;points=[[0,0.5],[1,0.5]];portConstraint=eastwest;rotatable=0;whiteSpace=wrap;html=1;" parent="rFY-rz_WOS9prxRwEmC6-13" vertex="1">
          <mxGeometry y="360" width="170" height="30" as="geometry" />
        </mxCell>
        <mxCell id="rFY-rz_WOS9prxRwEmC6-31" value="+ updatedAt : DATETIME" style="text;strokeColor=none;fillColor=none;align=left;verticalAlign=middle;spacingLeft=4;spacingRight=4;overflow=hidden;points=[[0,0.5],[1,0.5]];portConstraint=eastwest;rotatable=0;whiteSpace=wrap;html=1;" parent="rFY-rz_WOS9prxRwEmC6-13" vertex="1">
          <mxGeometry y="390" width="170" height="30" as="geometry" />
        </mxCell>
        <mxCell id="rFY-rz_WOS9prxRwEmC6-24" style="rounded=0;orthogonalLoop=1;jettySize=auto;html=1;exitX=1;exitY=0.5;exitDx=0;exitDy=0;entryX=0;entryY=0.5;entryDx=0;entryDy=0;endArrow=classic;endFill=1;startArrow=classic;startFill=1;" parent="1" source="rFY-rz_WOS9prxRwEmC6-2" target="rFY-rz_WOS9prxRwEmC6-7" edge="1">
          <mxGeometry relative="1" as="geometry" />
        </mxCell>
        <mxCell id="rFY-rz_WOS9prxRwEmC6-25" value="one-to-one" style="edgeLabel;html=1;align=center;verticalAlign=middle;resizable=0;points=[];" parent="rFY-rz_WOS9prxRwEmC6-24" vertex="1" connectable="0">
          <mxGeometry x="-0.0022" relative="1" as="geometry">
            <mxPoint as="offset" />
          </mxGeometry>
        </mxCell>
        <mxCell id="rFY-rz_WOS9prxRwEmC6-26" style="rounded=0;orthogonalLoop=1;jettySize=auto;html=1;exitX=0;exitY=0.5;exitDx=0;exitDy=0;entryX=1;entryY=0.5;entryDx=0;entryDy=0;startArrow=classic;startFill=1;" parent="1" source="rFY-rz_WOS9prxRwEmC6-11" target="rFY-rz_WOS9prxRwEmC6-2" edge="1">
          <mxGeometry relative="1" as="geometry" />
        </mxCell>
        <mxCell id="rFY-rz_WOS9prxRwEmC6-27" value="one-to-one" style="edgeLabel;html=1;align=center;verticalAlign=middle;resizable=0;points=[];" parent="rFY-rz_WOS9prxRwEmC6-26" vertex="1" connectable="0">
          <mxGeometry x="0.0784" relative="1" as="geometry">
            <mxPoint as="offset" />
          </mxGeometry>
        </mxCell>
        <mxCell id="rFY-rz_WOS9prxRwEmC6-33" style="rounded=0;orthogonalLoop=1;jettySize=auto;html=1;exitX=1;exitY=0.5;exitDx=0;exitDy=0;entryX=0;entryY=0.5;entryDx=0;entryDy=0;startArrow=classic;startFill=1;" parent="1" source="rFY-rz_WOS9prxRwEmC6-28" target="rFY-rz_WOS9prxRwEmC6-32" edge="1">
          <mxGeometry relative="1" as="geometry" />
        </mxCell>
        <mxCell id="rFY-rz_WOS9prxRwEmC6-36" value="one-to-many" style="edgeLabel;html=1;align=center;verticalAlign=middle;resizable=0;points=[];" parent="rFY-rz_WOS9prxRwEmC6-33" vertex="1" connectable="0">
          <mxGeometry x="-0.0058" y="-1" relative="1" as="geometry">
            <mxPoint as="offset" />
          </mxGeometry>
        </mxCell>
        <mxCell id="rFY-rz_WOS9prxRwEmC6-40" style="rounded=0;orthogonalLoop=1;jettySize=auto;html=1;exitX=1;exitY=0.5;exitDx=0;exitDy=0;entryX=0;entryY=0.5;entryDx=0;entryDy=0;startArrow=classic;startFill=1;" parent="1" source="rFY-rz_WOS9prxRwEmC6-29" target="rFY-rz_WOS9prxRwEmC6-39" edge="1">
          <mxGeometry relative="1" as="geometry" />
        </mxCell>
        <mxCell id="rFY-rz_WOS9prxRwEmC6-41" value="many-to-many" style="edgeLabel;html=1;align=center;verticalAlign=middle;resizable=0;points=[];" parent="rFY-rz_WOS9prxRwEmC6-40" vertex="1" connectable="0">
          <mxGeometry x="-0.0184" y="1" relative="1" as="geometry">
            <mxPoint as="offset" />
          </mxGeometry>
        </mxCell>
        <mxCell id="rFY-rz_WOS9prxRwEmC6-52" value="Artist" style="swimlane;fontStyle=0;childLayout=stackLayout;horizontal=1;startSize=30;horizontalStack=0;resizeParent=1;resizeParentMax=0;resizeLast=0;collapsible=1;marginBottom=0;whiteSpace=wrap;html=1;" parent="1" vertex="1">
          <mxGeometry x="-866.77" y="-1570" width="200" height="180" as="geometry" />
        </mxCell>
        <mxCell id="rFY-rz_WOS9prxRwEmC6-53" value="+ id : UUID string" style="text;strokeColor=none;fillColor=none;align=left;verticalAlign=middle;spacingLeft=4;spacingRight=4;overflow=hidden;points=[[0,0.5],[1,0.5]];portConstraint=eastwest;rotatable=0;whiteSpace=wrap;html=1;" parent="rFY-rz_WOS9prxRwEmC6-52" vertex="1">
          <mxGeometry y="30" width="200" height="30" as="geometry" />
        </mxCell>
        <mxCell id="rFY-rz_WOS9prxRwEmC6-56" value="+ user" style="text;strokeColor=none;fillColor=none;align=left;verticalAlign=middle;spacingLeft=4;spacingRight=4;overflow=hidden;points=[[0,0.5],[1,0.5]];portConstraint=eastwest;rotatable=0;whiteSpace=wrap;html=1;" parent="rFY-rz_WOS9prxRwEmC6-52" vertex="1">
          <mxGeometry y="60" width="200" height="30" as="geometry" />
        </mxCell>
        <mxCell id="rFY-rz_WOS9prxRwEmC6-54" value="+ monthlyListeners : INTEGER" style="text;strokeColor=none;fillColor=none;align=left;verticalAlign=middle;spacingLeft=4;spacingRight=4;overflow=hidden;points=[[0,0.5],[1,0.5]];portConstraint=eastwest;rotatable=0;whiteSpace=wrap;html=1;" parent="rFY-rz_WOS9prxRwEmC6-52" vertex="1">
          <mxGeometry y="90" width="200" height="30" as="geometry" />
        </mxCell>
        <mxCell id="rFY-rz_WOS9prxRwEmC6-55" value="+ numberOfReleases : INTEGER" style="text;strokeColor=none;fillColor=none;align=left;verticalAlign=middle;spacingLeft=4;spacingRight=4;overflow=hidden;points=[[0,0.5],[1,0.5]];portConstraint=eastwest;rotatable=0;whiteSpace=wrap;html=1;" parent="rFY-rz_WOS9prxRwEmC6-52" vertex="1">
          <mxGeometry y="120" width="200" height="30" as="geometry" />
        </mxCell>
        <mxCell id="rFY-rz_WOS9prxRwEmC6-64" value="+ releases" style="text;strokeColor=none;fillColor=none;align=left;verticalAlign=middle;spacingLeft=4;spacingRight=4;overflow=hidden;points=[[0,0.5],[1,0.5]];portConstraint=eastwest;rotatable=0;whiteSpace=wrap;html=1;" parent="rFY-rz_WOS9prxRwEmC6-52" vertex="1">
          <mxGeometry y="150" width="200" height="30" as="geometry" />
        </mxCell>
        <mxCell id="rFY-rz_WOS9prxRwEmC6-57" style="rounded=0;orthogonalLoop=1;jettySize=auto;html=1;exitX=1;exitY=0.5;exitDx=0;exitDy=0;entryX=0;entryY=0.5;entryDx=0;entryDy=0;startArrow=classic;startFill=1;" parent="1" source="rFY-rz_WOS9prxRwEmC6-56" target="6JZ951tkPi9Nr6TmQ6ol-4" edge="1">
          <mxGeometry relative="1" as="geometry" />
        </mxCell>
        <mxCell id="rFY-rz_WOS9prxRwEmC6-61" value="one-to-one" style="edgeLabel;html=1;align=center;verticalAlign=middle;resizable=0;points=[];" parent="rFY-rz_WOS9prxRwEmC6-57" vertex="1" connectable="0">
          <mxGeometry x="-0.0301" y="-1" relative="1" as="geometry">
            <mxPoint as="offset" />
          </mxGeometry>
        </mxCell>
        <mxCell id="rFY-rz_WOS9prxRwEmC6-65" style="rounded=0;orthogonalLoop=1;jettySize=auto;html=1;exitX=1;exitY=0.5;exitDx=0;exitDy=0;entryX=0;entryY=0.5;entryDx=0;entryDy=0;startArrow=classic;startFill=1;" parent="1" source="rFY-rz_WOS9prxRwEmC6-62" target="rFY-rz_WOS9prxRwEmC6-64" edge="1">
          <mxGeometry relative="1" as="geometry" />
        </mxCell>
        <mxCell id="rFY-rz_WOS9prxRwEmC6-66" value="many-to-one" style="edgeLabel;html=1;align=center;verticalAlign=middle;resizable=0;points=[];" parent="rFY-rz_WOS9prxRwEmC6-65" vertex="1" connectable="0">
          <mxGeometry x="-0.0314" relative="1" as="geometry">
            <mxPoint as="offset" />
          </mxGeometry>
        </mxCell>
        <mxCell id="rFY-rz_WOS9prxRwEmC6-67" value="Listener" style="swimlane;fontStyle=0;childLayout=stackLayout;horizontal=1;startSize=30;horizontalStack=0;resizeParent=1;resizeParentMax=0;resizeLast=0;collapsible=1;marginBottom=0;whiteSpace=wrap;html=1;" parent="1" vertex="1">
          <mxGeometry x="-875.8299999999999" y="-1070" width="218.12" height="450" as="geometry" />
        </mxCell>
        <mxCell id="rFY-rz_WOS9prxRwEmC6-68" value="+ id : UUID string" style="text;strokeColor=none;fillColor=none;align=left;verticalAlign=middle;spacingLeft=4;spacingRight=4;overflow=hidden;points=[[0,0.5],[1,0.5]];portConstraint=eastwest;rotatable=0;whiteSpace=wrap;html=1;" parent="rFY-rz_WOS9prxRwEmC6-67" vertex="1">
          <mxGeometry y="30" width="218.12" height="30" as="geometry" />
        </mxCell>
        <mxCell id="rFY-rz_WOS9prxRwEmC6-69" value="+ user" style="text;strokeColor=none;fillColor=none;align=left;verticalAlign=middle;spacingLeft=4;spacingRight=4;overflow=hidden;points=[[0,0.5],[1,0.5]];portConstraint=eastwest;rotatable=0;whiteSpace=wrap;html=1;" parent="rFY-rz_WOS9prxRwEmC6-67" vertex="1">
          <mxGeometry y="60" width="218.12" height="30" as="geometry" />
        </mxCell>
        <mxCell id="rFY-rz_WOS9prxRwEmC6-80" value="+ numberOfLikedPlaylists : INTEGER" style="text;strokeColor=none;fillColor=none;align=left;verticalAlign=middle;spacingLeft=4;spacingRight=4;overflow=hidden;points=[[0,0.5],[1,0.5]];portConstraint=eastwest;rotatable=0;whiteSpace=wrap;html=1;" parent="rFY-rz_WOS9prxRwEmC6-67" vertex="1">
          <mxGeometry y="90" width="218.12" height="30" as="geometry" />
        </mxCell>
        <mxCell id="rFY-rz_WOS9prxRwEmC6-81" value="+ numberOfLikedReleases : INTEGER" style="text;strokeColor=none;fillColor=none;align=left;verticalAlign=middle;spacingLeft=4;spacingRight=4;overflow=hidden;points=[[0,0.5],[1,0.5]];portConstraint=eastwest;rotatable=0;whiteSpace=wrap;html=1;" parent="rFY-rz_WOS9prxRwEmC6-67" vertex="1">
          <mxGeometry y="120" width="218.12" height="30" as="geometry" />
        </mxCell>
        <mxCell id="EfcInkHwceWXl7_W82CV-45" value="+ numberOfLikedSongs : INTEGER" style="text;strokeColor=none;fillColor=none;align=left;verticalAlign=middle;spacingLeft=4;spacingRight=4;overflow=hidden;points=[[0,0.5],[1,0.5]];portConstraint=eastwest;rotatable=0;whiteSpace=wrap;html=1;" parent="rFY-rz_WOS9prxRwEmC6-67" vertex="1">
          <mxGeometry y="150" width="218.12" height="30" as="geometry" />
        </mxCell>
        <mxCell id="cVVkLgNvFqvZXcf-PF3v-7" value="+ commentReactions" style="text;strokeColor=none;fillColor=none;align=left;verticalAlign=middle;spacingLeft=4;spacingRight=4;overflow=hidden;points=[[0,0.5],[1,0.5]];portConstraint=eastwest;rotatable=0;whiteSpace=wrap;html=1;" parent="rFY-rz_WOS9prxRwEmC6-67" vertex="1">
          <mxGeometry y="180" width="218.12" height="30" as="geometry" />
        </mxCell>
        <mxCell id="cIepVJIdWPNUekeXTL3l-15" value="+ comments" style="text;strokeColor=none;fillColor=none;align=left;verticalAlign=middle;spacingLeft=4;spacingRight=4;overflow=hidden;points=[[0,0.5],[1,0.5]];portConstraint=eastwest;rotatable=0;whiteSpace=wrap;html=1;" parent="rFY-rz_WOS9prxRwEmC6-67" vertex="1">
          <mxGeometry y="210" width="218.12" height="30" as="geometry" />
        </mxCell>
        <mxCell id="EfcInkHwceWXl7_W82CV-10" value="+ likedReleases" style="text;strokeColor=none;fillColor=none;align=left;verticalAlign=middle;spacingLeft=4;spacingRight=4;overflow=hidden;points=[[0,0.5],[1,0.5]];portConstraint=eastwest;rotatable=0;whiteSpace=wrap;html=1;" parent="rFY-rz_WOS9prxRwEmC6-67" vertex="1">
          <mxGeometry y="240" width="218.12" height="30" as="geometry" />
        </mxCell>
        <mxCell id="EfcInkHwceWXl7_W82CV-28" value="+ repostedReleases" style="text;strokeColor=none;fillColor=none;align=left;verticalAlign=middle;spacingLeft=4;spacingRight=4;overflow=hidden;points=[[0,0.5],[1,0.5]];portConstraint=eastwest;rotatable=0;whiteSpace=wrap;html=1;" parent="rFY-rz_WOS9prxRwEmC6-67" vertex="1">
          <mxGeometry y="270" width="218.12" height="30" as="geometry" />
        </mxCell>
        <mxCell id="EfcInkHwceWXl7_W82CV-15" value="+ likedSongs" style="text;strokeColor=none;fillColor=none;align=left;verticalAlign=middle;spacingLeft=4;spacingRight=4;overflow=hidden;points=[[0,0.5],[1,0.5]];portConstraint=eastwest;rotatable=0;whiteSpace=wrap;html=1;" parent="rFY-rz_WOS9prxRwEmC6-67" vertex="1">
          <mxGeometry y="300" width="218.12" height="30" as="geometry" />
        </mxCell>
        <mxCell id="rFY-rz_WOS9prxRwEmC6-82" value="+ repostedSongs" style="text;strokeColor=none;fillColor=none;align=left;verticalAlign=middle;spacingLeft=4;spacingRight=4;overflow=hidden;points=[[0,0.5],[1,0.5]];portConstraint=eastwest;rotatable=0;whiteSpace=wrap;html=1;" parent="rFY-rz_WOS9prxRwEmC6-67" vertex="1">
          <mxGeometry y="330" width="218.12" height="30" as="geometry" />
        </mxCell>
        <mxCell id="EfcInkHwceWXl7_W82CV-29" value="+ repostedPlaylists" style="text;strokeColor=none;fillColor=none;align=left;verticalAlign=middle;spacingLeft=4;spacingRight=4;overflow=hidden;points=[[0,0.5],[1,0.5]];portConstraint=eastwest;rotatable=0;whiteSpace=wrap;html=1;" parent="rFY-rz_WOS9prxRwEmC6-67" vertex="1">
          <mxGeometry y="360" width="218.12" height="30" as="geometry" />
        </mxCell>
        <mxCell id="rFY-rz_WOS9prxRwEmC6-73" value="+ likedPlaylists" style="text;strokeColor=none;fillColor=none;align=left;verticalAlign=middle;spacingLeft=4;spacingRight=4;overflow=hidden;points=[[0,0.5],[1,0.5]];portConstraint=eastwest;rotatable=0;whiteSpace=wrap;html=1;" parent="rFY-rz_WOS9prxRwEmC6-67" vertex="1">
          <mxGeometry y="390" width="218.12" height="30" as="geometry" />
        </mxCell>
        <mxCell id="rFY-rz_WOS9prxRwEmC6-70" value="+ createdPlaylists" style="text;strokeColor=none;fillColor=none;align=left;verticalAlign=middle;spacingLeft=4;spacingRight=4;overflow=hidden;points=[[0,0.5],[1,0.5]];portConstraint=eastwest;rotatable=0;whiteSpace=wrap;html=1;" parent="rFY-rz_WOS9prxRwEmC6-67" vertex="1">
          <mxGeometry y="420" width="218.12" height="30" as="geometry" />
        </mxCell>
        <mxCell id="rFY-rz_WOS9prxRwEmC6-71" style="rounded=0;orthogonalLoop=1;jettySize=auto;html=1;exitX=1;exitY=0.5;exitDx=0;exitDy=0;entryX=0;entryY=0.5;entryDx=0;entryDy=0;startArrow=classic;startFill=1;" parent="1" source="rFY-rz_WOS9prxRwEmC6-69" target="6JZ951tkPi9Nr6TmQ6ol-4" edge="1">
          <mxGeometry relative="1" as="geometry" />
        </mxCell>
        <mxCell id="rFY-rz_WOS9prxRwEmC6-72" value="one-to-one" style="edgeLabel;html=1;align=center;verticalAlign=middle;resizable=0;points=[];" parent="rFY-rz_WOS9prxRwEmC6-71" vertex="1" connectable="0">
          <mxGeometry x="-0.0245" y="1" relative="1" as="geometry">
            <mxPoint y="1" as="offset" />
          </mxGeometry>
        </mxCell>
        <mxCell id="rFY-rz_WOS9prxRwEmC6-76" style="rounded=0;orthogonalLoop=1;jettySize=auto;html=1;exitX=0;exitY=0.5;exitDx=0;exitDy=0;entryX=1;entryY=0.5;entryDx=0;entryDy=0;startArrow=classic;startFill=1;" parent="1" source="rFY-rz_WOS9prxRwEmC6-70" target="rFY-rz_WOS9prxRwEmC6-74" edge="1">
          <mxGeometry relative="1" as="geometry" />
        </mxCell>
        <mxCell id="rFY-rz_WOS9prxRwEmC6-77" value="many-to-one" style="edgeLabel;html=1;align=center;verticalAlign=middle;resizable=0;points=[];" parent="rFY-rz_WOS9prxRwEmC6-76" vertex="1" connectable="0">
          <mxGeometry x="0.0352" relative="1" as="geometry">
            <mxPoint y="1" as="offset" />
          </mxGeometry>
        </mxCell>
        <mxCell id="rFY-rz_WOS9prxRwEmC6-78" style="rounded=0;orthogonalLoop=1;jettySize=auto;html=1;exitX=1;exitY=0.5;exitDx=0;exitDy=0;entryX=0;entryY=0.5;entryDx=0;entryDy=0;startArrow=classic;startFill=1;" parent="1" source="rFY-rz_WOS9prxRwEmC6-75" target="rFY-rz_WOS9prxRwEmC6-73" edge="1">
          <mxGeometry relative="1" as="geometry" />
        </mxCell>
        <mxCell id="rFY-rz_WOS9prxRwEmC6-79" value="many-to-many" style="edgeLabel;html=1;align=center;verticalAlign=middle;resizable=0;points=[];" parent="rFY-rz_WOS9prxRwEmC6-78" vertex="1" connectable="0">
          <mxGeometry x="-0.051" relative="1" as="geometry">
            <mxPoint as="offset" />
          </mxGeometry>
        </mxCell>
        <mxCell id="EfcInkHwceWXl7_W82CV-11" style="edgeStyle=orthogonalEdgeStyle;rounded=0;orthogonalLoop=1;jettySize=auto;html=1;exitX=0;exitY=0.5;exitDx=0;exitDy=0;entryX=1;entryY=0.5;entryDx=0;entryDy=0;startArrow=classic;startFill=1;" parent="1" source="EfcInkHwceWXl7_W82CV-10" target="EfcInkHwceWXl7_W82CV-9" edge="1">
          <mxGeometry relative="1" as="geometry">
            <Array as="points">
              <mxPoint x="-1152" y="-815" />
              <mxPoint x="-1152" y="-1225" />
            </Array>
          </mxGeometry>
        </mxCell>
        <mxCell id="EfcInkHwceWXl7_W82CV-39" value="many-to-many" style="edgeLabel;html=1;align=center;verticalAlign=middle;resizable=0;points=[];" parent="EfcInkHwceWXl7_W82CV-11" vertex="1" connectable="0">
          <mxGeometry x="-0.8619" relative="1" as="geometry">
            <mxPoint as="offset" />
          </mxGeometry>
        </mxCell>
        <mxCell id="EfcInkHwceWXl7_W82CV-33" style="edgeStyle=orthogonalEdgeStyle;rounded=0;orthogonalLoop=1;jettySize=auto;html=1;exitX=0;exitY=0.5;exitDx=0;exitDy=0;entryX=1;entryY=0.5;entryDx=0;entryDy=0;startArrow=classic;startFill=1;" parent="1" source="EfcInkHwceWXl7_W82CV-28" target="EfcInkHwceWXl7_W82CV-31" edge="1">
          <mxGeometry relative="1" as="geometry">
            <Array as="points">
              <mxPoint x="-1177" y="-785" />
              <mxPoint x="-1177" y="-1195" />
            </Array>
          </mxGeometry>
        </mxCell>
        <mxCell id="EfcInkHwceWXl7_W82CV-40" value="many-to-many" style="edgeLabel;html=1;align=center;verticalAlign=middle;resizable=0;points=[];" parent="EfcInkHwceWXl7_W82CV-33" vertex="1" connectable="0">
          <mxGeometry x="-0.8619" relative="1" as="geometry">
            <mxPoint as="offset" />
          </mxGeometry>
        </mxCell>
        <mxCell id="EfcInkHwceWXl7_W82CV-34" style="edgeStyle=orthogonalEdgeStyle;rounded=0;orthogonalLoop=1;jettySize=auto;html=1;exitX=0;exitY=0.5;exitDx=0;exitDy=0;entryX=1;entryY=0.5;entryDx=0;entryDy=0;startArrow=classic;startFill=1;" parent="1" source="EfcInkHwceWXl7_W82CV-15" target="EfcInkHwceWXl7_W82CV-16" edge="1">
          <mxGeometry relative="1" as="geometry">
            <Array as="points">
              <mxPoint x="-1196.77" y="-755" />
              <mxPoint x="-1196.77" y="-855" />
            </Array>
          </mxGeometry>
        </mxCell>
        <mxCell id="EfcInkHwceWXl7_W82CV-41" value="many-to-many" style="edgeLabel;html=1;align=center;verticalAlign=middle;resizable=0;points=[];" parent="EfcInkHwceWXl7_W82CV-34" vertex="1" connectable="0">
          <mxGeometry x="-0.6312" relative="1" as="geometry">
            <mxPoint as="offset" />
          </mxGeometry>
        </mxCell>
        <mxCell id="EfcInkHwceWXl7_W82CV-35" style="edgeStyle=orthogonalEdgeStyle;rounded=0;orthogonalLoop=1;jettySize=auto;html=1;exitX=0;exitY=0.5;exitDx=0;exitDy=0;entryX=1;entryY=0.5;entryDx=0;entryDy=0;startArrow=classic;startFill=1;" parent="1" source="rFY-rz_WOS9prxRwEmC6-82" target="EfcInkHwceWXl7_W82CV-30" edge="1">
          <mxGeometry relative="1" as="geometry">
            <Array as="points">
              <mxPoint x="-1216.77" y="-725" />
              <mxPoint x="-1216.77" y="-825" />
            </Array>
          </mxGeometry>
        </mxCell>
        <mxCell id="EfcInkHwceWXl7_W82CV-42" value="many-to-many" style="edgeLabel;html=1;align=center;verticalAlign=middle;resizable=0;points=[];" parent="EfcInkHwceWXl7_W82CV-35" vertex="1" connectable="0">
          <mxGeometry x="-0.6312" relative="1" as="geometry">
            <mxPoint as="offset" />
          </mxGeometry>
        </mxCell>
        <mxCell id="EfcInkHwceWXl7_W82CV-36" style="rounded=0;orthogonalLoop=1;jettySize=auto;html=1;exitX=0;exitY=0.5;exitDx=0;exitDy=0;entryX=1;entryY=0.5;entryDx=0;entryDy=0;startArrow=classic;startFill=1;" parent="1" source="EfcInkHwceWXl7_W82CV-29" target="EfcInkHwceWXl7_W82CV-32" edge="1">
          <mxGeometry relative="1" as="geometry" />
        </mxCell>
        <mxCell id="EfcInkHwceWXl7_W82CV-43" value="many-to-many" style="edgeLabel;html=1;align=center;verticalAlign=middle;resizable=0;points=[];" parent="EfcInkHwceWXl7_W82CV-36" vertex="1" connectable="0">
          <mxGeometry x="0.044" relative="1" as="geometry">
            <mxPoint as="offset" />
          </mxGeometry>
        </mxCell>
        <mxCell id="cIepVJIdWPNUekeXTL3l-2" value="Comment" style="swimlane;fontStyle=0;childLayout=stackLayout;horizontal=1;startSize=30;horizontalStack=0;resizeParent=1;resizeParentMax=0;resizeLast=0;collapsible=1;marginBottom=0;whiteSpace=wrap;html=1;" parent="1" vertex="1">
          <mxGeometry x="-866.77" y="-1370" width="200" height="270" as="geometry" />
        </mxCell>
        <mxCell id="cIepVJIdWPNUekeXTL3l-3" value="+ id : UUID string" style="text;strokeColor=none;fillColor=none;align=left;verticalAlign=middle;spacingLeft=4;spacingRight=4;overflow=hidden;points=[[0,0.5],[1,0.5]];portConstraint=eastwest;rotatable=0;whiteSpace=wrap;html=1;" parent="cIepVJIdWPNUekeXTL3l-2" vertex="1">
          <mxGeometry y="30" width="200" height="30" as="geometry" />
        </mxCell>
        <mxCell id="cIepVJIdWPNUekeXTL3l-10" value="+ content : NVARCHAR (300)" style="text;strokeColor=none;fillColor=none;align=left;verticalAlign=middle;spacingLeft=4;spacingRight=4;overflow=hidden;points=[[0,0.5],[1,0.5]];portConstraint=eastwest;rotatable=0;whiteSpace=wrap;html=1;" parent="cIepVJIdWPNUekeXTL3l-2" vertex="1">
          <mxGeometry y="60" width="200" height="30" as="geometry" />
        </mxCell>
        <mxCell id="cVVkLgNvFqvZXcf-PF3v-17" value="+ likes : INTEGER" style="text;strokeColor=none;fillColor=none;align=left;verticalAlign=middle;spacingLeft=4;spacingRight=4;overflow=hidden;points=[[0,0.5],[1,0.5]];portConstraint=eastwest;rotatable=0;whiteSpace=wrap;html=1;" parent="cIepVJIdWPNUekeXTL3l-2" vertex="1">
          <mxGeometry y="90" width="200" height="30" as="geometry" />
        </mxCell>
        <mxCell id="cVVkLgNvFqvZXcf-PF3v-18" value="+ dislikes : INTEGER" style="text;strokeColor=none;fillColor=none;align=left;verticalAlign=middle;spacingLeft=4;spacingRight=4;overflow=hidden;points=[[0,0.5],[1,0.5]];portConstraint=eastwest;rotatable=0;whiteSpace=wrap;html=1;" parent="cIepVJIdWPNUekeXTL3l-2" vertex="1">
          <mxGeometry y="120" width="200" height="30" as="geometry" />
        </mxCell>
        <mxCell id="cIepVJIdWPNUekeXTL3l-4" value="+ song" style="text;strokeColor=none;fillColor=none;align=left;verticalAlign=middle;spacingLeft=4;spacingRight=4;overflow=hidden;points=[[0,0.5],[1,0.5]];portConstraint=eastwest;rotatable=0;whiteSpace=wrap;html=1;" parent="cIepVJIdWPNUekeXTL3l-2" vertex="1">
          <mxGeometry y="150" width="200" height="30" as="geometry" />
        </mxCell>
        <mxCell id="cIepVJIdWPNUekeXTL3l-14" value="+ creator" style="text;strokeColor=none;fillColor=none;align=left;verticalAlign=middle;spacingLeft=4;spacingRight=4;overflow=hidden;points=[[0,0.5],[1,0.5]];portConstraint=eastwest;rotatable=0;whiteSpace=wrap;html=1;" parent="cIepVJIdWPNUekeXTL3l-2" vertex="1">
          <mxGeometry y="180" width="200" height="30" as="geometry" />
        </mxCell>
        <mxCell id="cVVkLgNvFqvZXcf-PF3v-10" value="+ reactions" style="text;strokeColor=none;fillColor=none;align=left;verticalAlign=middle;spacingLeft=4;spacingRight=4;overflow=hidden;points=[[0,0.5],[1,0.5]];portConstraint=eastwest;rotatable=0;whiteSpace=wrap;html=1;" parent="cIepVJIdWPNUekeXTL3l-2" vertex="1">
          <mxGeometry y="210" width="200" height="30" as="geometry" />
        </mxCell>
        <mxCell id="cIepVJIdWPNUekeXTL3l-5" value="+ createdAt : DATETIME" style="text;strokeColor=none;fillColor=none;align=left;verticalAlign=middle;spacingLeft=4;spacingRight=4;overflow=hidden;points=[[0,0.5],[1,0.5]];portConstraint=eastwest;rotatable=0;whiteSpace=wrap;html=1;" parent="cIepVJIdWPNUekeXTL3l-2" vertex="1">
          <mxGeometry y="240" width="200" height="30" as="geometry" />
        </mxCell>
        <mxCell id="cIepVJIdWPNUekeXTL3l-8" style="edgeStyle=orthogonalEdgeStyle;rounded=0;orthogonalLoop=1;jettySize=auto;html=1;exitX=1;exitY=0.5;exitDx=0;exitDy=0;entryX=0;entryY=0.5;entryDx=0;entryDy=0;startArrow=classic;startFill=1;" parent="1" source="rFY-rz_WOS9prxRwEmC6-16" target="cIepVJIdWPNUekeXTL3l-4" edge="1">
          <mxGeometry relative="1" as="geometry" />
        </mxCell>
        <mxCell id="cIepVJIdWPNUekeXTL3l-13" value="one-to-many" style="edgeLabel;html=1;align=center;verticalAlign=middle;resizable=0;points=[];" parent="cIepVJIdWPNUekeXTL3l-8" vertex="1" connectable="0">
          <mxGeometry x="0.6859" relative="1" as="geometry">
            <mxPoint as="offset" />
          </mxGeometry>
        </mxCell>
        <mxCell id="cIepVJIdWPNUekeXTL3l-16" style="edgeStyle=orthogonalEdgeStyle;rounded=0;orthogonalLoop=1;jettySize=auto;html=1;exitX=0;exitY=0.5;exitDx=0;exitDy=0;entryX=0;entryY=0.5;entryDx=0;entryDy=0;startArrow=classic;startFill=1;" parent="1" source="cIepVJIdWPNUekeXTL3l-15" target="cIepVJIdWPNUekeXTL3l-14" edge="1">
          <mxGeometry relative="1" as="geometry">
            <Array as="points">
              <mxPoint x="-987" y="-845" />
              <mxPoint x="-987" y="-1175" />
            </Array>
          </mxGeometry>
        </mxCell>
        <mxCell id="cVVkLgNvFqvZXcf-PF3v-15" value="one-to-many" style="edgeLabel;html=1;align=center;verticalAlign=middle;resizable=0;points=[];" parent="cIepVJIdWPNUekeXTL3l-16" vertex="1" connectable="0">
          <mxGeometry x="0.7747" relative="1" as="geometry">
            <mxPoint as="offset" />
          </mxGeometry>
        </mxCell>
        <mxCell id="cVVkLgNvFqvZXcf-PF3v-1" value="Reaction" style="swimlane;fontStyle=0;childLayout=stackLayout;horizontal=1;startSize=30;horizontalStack=0;resizeParent=1;resizeParentMax=0;resizeLast=0;collapsible=1;marginBottom=0;whiteSpace=wrap;html=1;" parent="1" vertex="1">
          <mxGeometry x="-510" y="-980" width="200" height="180" as="geometry" />
        </mxCell>
        <mxCell id="cVVkLgNvFqvZXcf-PF3v-2" value="+ unique(commentId + reactorId)" style="text;strokeColor=none;fillColor=none;align=left;verticalAlign=middle;spacingLeft=4;spacingRight=4;overflow=hidden;points=[[0,0.5],[1,0.5]];portConstraint=eastwest;rotatable=0;whiteSpace=wrap;html=1;" parent="cVVkLgNvFqvZXcf-PF3v-1" vertex="1">
          <mxGeometry y="30" width="200" height="30" as="geometry" />
        </mxCell>
        <mxCell id="cVVkLgNvFqvZXcf-PF3v-4" value="+ comment" style="text;strokeColor=none;fillColor=none;align=left;verticalAlign=middle;spacingLeft=4;spacingRight=4;overflow=hidden;points=[[0,0.5],[1,0.5]];portConstraint=eastwest;rotatable=0;whiteSpace=wrap;html=1;" parent="cVVkLgNvFqvZXcf-PF3v-1" vertex="1">
          <mxGeometry y="60" width="200" height="30" as="geometry" />
        </mxCell>
        <mxCell id="cVVkLgNvFqvZXcf-PF3v-5" value="+ reactor" style="text;strokeColor=none;fillColor=none;align=left;verticalAlign=middle;spacingLeft=4;spacingRight=4;overflow=hidden;points=[[0,0.5],[1,0.5]];portConstraint=eastwest;rotatable=0;whiteSpace=wrap;html=1;" parent="cVVkLgNvFqvZXcf-PF3v-1" vertex="1">
          <mxGeometry y="90" width="200" height="30" as="geometry" />
        </mxCell>
        <mxCell id="cVVkLgNvFqvZXcf-PF3v-16" value="+ isLike&lt;span style=&quot;background-color: initial;&quot;&gt;&amp;nbsp;: BOOLEAN&lt;/span&gt;" style="text;strokeColor=none;fillColor=none;align=left;verticalAlign=middle;spacingLeft=4;spacingRight=4;overflow=hidden;points=[[0,0.5],[1,0.5]];portConstraint=eastwest;rotatable=0;whiteSpace=wrap;html=1;" parent="cVVkLgNvFqvZXcf-PF3v-1" vertex="1">
          <mxGeometry y="120" width="200" height="30" as="geometry" />
        </mxCell>
        <mxCell id="cVVkLgNvFqvZXcf-PF3v-6" value="+ createdAt : DATETIME" style="text;strokeColor=none;fillColor=none;align=left;verticalAlign=middle;spacingLeft=4;spacingRight=4;overflow=hidden;points=[[0,0.5],[1,0.5]];portConstraint=eastwest;rotatable=0;whiteSpace=wrap;html=1;" parent="cVVkLgNvFqvZXcf-PF3v-1" vertex="1">
          <mxGeometry y="150" width="200" height="30" as="geometry" />
        </mxCell>
        <mxCell id="cVVkLgNvFqvZXcf-PF3v-8" style="edgeStyle=orthogonalEdgeStyle;rounded=0;orthogonalLoop=1;jettySize=auto;html=1;exitX=0;exitY=0.5;exitDx=0;exitDy=0;entryX=1;entryY=0.5;entryDx=0;entryDy=0;" parent="1" source="cVVkLgNvFqvZXcf-PF3v-5" target="cVVkLgNvFqvZXcf-PF3v-7" edge="1">
          <mxGeometry relative="1" as="geometry" />
        </mxCell>
        <mxCell id="cVVkLgNvFqvZXcf-PF3v-12" value="one-to-many" style="edgeLabel;html=1;align=center;verticalAlign=middle;resizable=0;points=[];" parent="cVVkLgNvFqvZXcf-PF3v-8" vertex="1" connectable="0">
          <mxGeometry x="-0.193" relative="1" as="geometry">
            <mxPoint as="offset" />
          </mxGeometry>
        </mxCell>
        <mxCell id="cVVkLgNvFqvZXcf-PF3v-11" style="edgeStyle=orthogonalEdgeStyle;rounded=0;orthogonalLoop=1;jettySize=auto;html=1;exitX=0;exitY=0.5;exitDx=0;exitDy=0;entryX=1;entryY=0.5;entryDx=0;entryDy=0;" parent="1" source="cVVkLgNvFqvZXcf-PF3v-4" target="cVVkLgNvFqvZXcf-PF3v-10" edge="1">
          <mxGeometry relative="1" as="geometry">
            <Array as="points">
              <mxPoint x="-620" y="-905" />
              <mxPoint x="-620" y="-1145" />
            </Array>
          </mxGeometry>
        </mxCell>
        <mxCell id="cVVkLgNvFqvZXcf-PF3v-14" value="one-to-many" style="edgeLabel;html=1;align=center;verticalAlign=middle;resizable=0;points=[];" parent="cVVkLgNvFqvZXcf-PF3v-11" vertex="1" connectable="0">
          <mxGeometry x="-0.7127" y="-3" relative="1" as="geometry">
            <mxPoint as="offset" />
          </mxGeometry>
        </mxCell>
        <mxCell id="cVVkLgNvFqvZXcf-PF3v-19" value="Follower" style="swimlane;fontStyle=0;childLayout=stackLayout;horizontal=1;startSize=26;fillColor=none;horizontalStack=0;resizeParent=1;resizeParentMax=0;resizeLast=0;collapsible=1;marginBottom=0;whiteSpace=wrap;html=1;" parent="1" vertex="1">
          <mxGeometry x="-213.67000000000002" y="-955" width="170" height="130" as="geometry" />
        </mxCell>
        <mxCell id="cVVkLgNvFqvZXcf-PF3v-20" value="+ id : UUID string" style="text;strokeColor=none;fillColor=none;align=left;verticalAlign=top;spacingLeft=4;spacingRight=4;overflow=hidden;rotatable=0;points=[[0,0.5],[1,0.5]];portConstraint=eastwest;whiteSpace=wrap;html=1;" parent="cVVkLgNvFqvZXcf-PF3v-19" vertex="1">
          <mxGeometry y="26" width="170" height="26" as="geometry" />
        </mxCell>
        <mxCell id="cVVkLgNvFqvZXcf-PF3v-21" value="+ follower" style="text;strokeColor=none;fillColor=none;align=left;verticalAlign=top;spacingLeft=4;spacingRight=4;overflow=hidden;rotatable=0;points=[[0,0.5],[1,0.5]];portConstraint=eastwest;whiteSpace=wrap;html=1;" parent="cVVkLgNvFqvZXcf-PF3v-19" vertex="1">
          <mxGeometry y="52" width="170" height="26" as="geometry" />
        </mxCell>
        <mxCell id="cVVkLgNvFqvZXcf-PF3v-22" value="+ following" style="text;strokeColor=none;fillColor=none;align=left;verticalAlign=top;spacingLeft=4;spacingRight=4;overflow=hidden;rotatable=0;points=[[0,0.5],[1,0.5]];portConstraint=eastwest;whiteSpace=wrap;html=1;" parent="cVVkLgNvFqvZXcf-PF3v-19" vertex="1">
          <mxGeometry y="78" width="170" height="26" as="geometry" />
        </mxCell>
        <mxCell id="cVVkLgNvFqvZXcf-PF3v-25" value="+ createdAt : DATETIME" style="text;strokeColor=none;fillColor=none;align=left;verticalAlign=top;spacingLeft=4;spacingRight=4;overflow=hidden;rotatable=0;points=[[0,0.5],[1,0.5]];portConstraint=eastwest;whiteSpace=wrap;html=1;" parent="cVVkLgNvFqvZXcf-PF3v-19" vertex="1">
          <mxGeometry y="104" width="170" height="26" as="geometry" />
        </mxCell>
        <mxCell id="cVVkLgNvFqvZXcf-PF3v-30" style="rounded=0;orthogonalLoop=1;jettySize=auto;html=1;exitX=1;exitY=0.5;exitDx=0;exitDy=0;entryX=0;entryY=0.5;entryDx=0;entryDy=0;startArrow=classic;startFill=1;" parent="1" source="cVVkLgNvFqvZXcf-PF3v-22" target="cVVkLgNvFqvZXcf-PF3v-26" edge="1">
          <mxGeometry relative="1" as="geometry" />
        </mxCell>
        <mxCell id="cVVkLgNvFqvZXcf-PF3v-33" value="many-to-one" style="edgeLabel;html=1;align=center;verticalAlign=middle;resizable=0;points=[];" parent="cVVkLgNvFqvZXcf-PF3v-30" vertex="1" connectable="0">
          <mxGeometry x="-0.0776" y="-1" relative="1" as="geometry">
            <mxPoint as="offset" />
          </mxGeometry>
        </mxCell>
        <mxCell id="cVVkLgNvFqvZXcf-PF3v-31" style="rounded=0;orthogonalLoop=1;jettySize=auto;html=1;exitX=0;exitY=0.5;exitDx=0;exitDy=0;entryX=1;entryY=0.5;entryDx=0;entryDy=0;startArrow=classic;startFill=1;" parent="1" source="cVVkLgNvFqvZXcf-PF3v-27" target="cVVkLgNvFqvZXcf-PF3v-21" edge="1">
          <mxGeometry relative="1" as="geometry" />
        </mxCell>
        <mxCell id="cVVkLgNvFqvZXcf-PF3v-32" value="many-to-one" style="edgeLabel;html=1;align=center;verticalAlign=middle;resizable=0;points=[];" parent="cVVkLgNvFqvZXcf-PF3v-31" vertex="1" connectable="0">
          <mxGeometry x="0.0776" relative="1" as="geometry">
            <mxPoint as="offset" />
          </mxGeometry>
        </mxCell>
        <mxCell id="PgTkkJ_BFa4D4Vha9WE_-2" value="Genre" style="swimlane;fontStyle=0;childLayout=stackLayout;horizontal=1;startSize=30;horizontalStack=0;resizeParent=1;resizeParentMax=0;resizeLast=0;collapsible=1;marginBottom=0;whiteSpace=wrap;html=1;" parent="1" vertex="1">
          <mxGeometry x="-2100" y="-880" width="200" height="120" as="geometry" />
        </mxCell>
        <mxCell id="PgTkkJ_BFa4D4Vha9WE_-3" value="+ id : UUID string" style="text;strokeColor=none;fillColor=none;align=left;verticalAlign=middle;spacingLeft=4;spacingRight=4;overflow=hidden;points=[[0,0.5],[1,0.5]];portConstraint=eastwest;rotatable=0;whiteSpace=wrap;html=1;" parent="PgTkkJ_BFa4D4Vha9WE_-2" vertex="1">
          <mxGeometry y="30" width="200" height="30" as="geometry" />
        </mxCell>
        <mxCell id="PgTkkJ_BFa4D4Vha9WE_-4" value="+ name : NVARCHAR (100)" style="text;strokeColor=none;fillColor=none;align=left;verticalAlign=middle;spacingLeft=4;spacingRight=4;overflow=hidden;points=[[0,0.5],[1,0.5]];portConstraint=eastwest;rotatable=0;whiteSpace=wrap;html=1;" parent="PgTkkJ_BFa4D4Vha9WE_-2" vertex="1">
          <mxGeometry y="60" width="200" height="30" as="geometry" />
        </mxCell>
        <mxCell id="PgTkkJ_BFa4D4Vha9WE_-7" value="+ songs" style="text;strokeColor=none;fillColor=none;align=left;verticalAlign=middle;spacingLeft=4;spacingRight=4;overflow=hidden;points=[[0,0.5],[1,0.5]];portConstraint=eastwest;rotatable=0;whiteSpace=wrap;html=1;" parent="PgTkkJ_BFa4D4Vha9WE_-2" vertex="1">
          <mxGeometry y="90" width="200" height="30" as="geometry" />
        </mxCell>
        <mxCell id="PgTkkJ_BFa4D4Vha9WE_-13" value="Tag" style="swimlane;fontStyle=0;childLayout=stackLayout;horizontal=1;startSize=30;horizontalStack=0;resizeParent=1;resizeParentMax=0;resizeLast=0;collapsible=1;marginBottom=0;whiteSpace=wrap;html=1;" parent="1" vertex="1">
          <mxGeometry x="-2100" y="-710" width="200" height="120" as="geometry" />
        </mxCell>
        <mxCell id="PgTkkJ_BFa4D4Vha9WE_-14" value="+ id : UUID string" style="text;strokeColor=none;fillColor=none;align=left;verticalAlign=middle;spacingLeft=4;spacingRight=4;overflow=hidden;points=[[0,0.5],[1,0.5]];portConstraint=eastwest;rotatable=0;whiteSpace=wrap;html=1;" parent="PgTkkJ_BFa4D4Vha9WE_-13" vertex="1">
          <mxGeometry y="30" width="200" height="30" as="geometry" />
        </mxCell>
        <mxCell id="PgTkkJ_BFa4D4Vha9WE_-15" value="+ name : NVARCHAR (100)" style="text;strokeColor=none;fillColor=none;align=left;verticalAlign=middle;spacingLeft=4;spacingRight=4;overflow=hidden;points=[[0,0.5],[1,0.5]];portConstraint=eastwest;rotatable=0;whiteSpace=wrap;html=1;" parent="PgTkkJ_BFa4D4Vha9WE_-13" vertex="1">
          <mxGeometry y="60" width="200" height="30" as="geometry" />
        </mxCell>
        <mxCell id="PgTkkJ_BFa4D4Vha9WE_-16" value="+ songs" style="text;strokeColor=none;fillColor=none;align=left;verticalAlign=middle;spacingLeft=4;spacingRight=4;overflow=hidden;points=[[0,0.5],[1,0.5]];portConstraint=eastwest;rotatable=0;whiteSpace=wrap;html=1;" parent="PgTkkJ_BFa4D4Vha9WE_-13" vertex="1">
          <mxGeometry y="90" width="200" height="30" as="geometry" />
        </mxCell>
        <mxCell id="PgTkkJ_BFa4D4Vha9WE_-17" style="edgeStyle=orthogonalEdgeStyle;rounded=0;orthogonalLoop=1;jettySize=auto;html=1;exitX=0;exitY=0.5;exitDx=0;exitDy=0;entryX=1;entryY=0.5;entryDx=0;entryDy=0;" parent="1" source="PgTkkJ_BFa4D4Vha9WE_-11" target="PgTkkJ_BFa4D4Vha9WE_-16" edge="1">
          <mxGeometry relative="1" as="geometry">
            <Array as="points">
              <mxPoint x="-1740" y="-915" />
              <mxPoint x="-1740" y="-605" />
            </Array>
          </mxGeometry>
        </mxCell>
        <mxCell id="PgTkkJ_BFa4D4Vha9WE_-20" value="many-to-many" style="edgeLabel;html=1;align=center;verticalAlign=middle;resizable=0;points=[];" parent="PgTkkJ_BFa4D4Vha9WE_-17" vertex="1" connectable="0">
          <mxGeometry x="0.7933" y="1" relative="1" as="geometry">
            <mxPoint as="offset" />
          </mxGeometry>
        </mxCell>
        <mxCell id="PgTkkJ_BFa4D4Vha9WE_-18" style="edgeStyle=orthogonalEdgeStyle;rounded=0;orthogonalLoop=1;jettySize=auto;html=1;exitX=0;exitY=0.5;exitDx=0;exitDy=0;entryX=1;entryY=0.5;entryDx=0;entryDy=0;" parent="1" source="PgTkkJ_BFa4D4Vha9WE_-1" target="PgTkkJ_BFa4D4Vha9WE_-7" edge="1">
          <mxGeometry relative="1" as="geometry">
            <Array as="points">
              <mxPoint x="-1780" y="-945" />
              <mxPoint x="-1780" y="-775" />
            </Array>
          </mxGeometry>
        </mxCell>
        <mxCell id="PgTkkJ_BFa4D4Vha9WE_-19" value="many-to-many" style="edgeLabel;html=1;align=center;verticalAlign=middle;resizable=0;points=[];" parent="PgTkkJ_BFa4D4Vha9WE_-18" vertex="1" connectable="0">
          <mxGeometry x="0.8076" relative="1" as="geometry">
            <mxPoint as="offset" />
          </mxGeometry>
        </mxCell>
      </root>
    </mxGraphModel>
  </diagram>
</mxfile>
